<svg width="1080" height="440" viewBox="0 0 1080 440" fill="none" xmlns="http://www.w3.org/2000/svg">
<g clip-path="url(#clip0_1224_89)">
<rect width="1080" height="440" fill="white"/>
<rect width="1080" height="440" fill="url(#paint0_linear_1224_89)"/>
<path d="M50.296 108H40.792L59.8 55.368H69.232L88.24 108H78.52L74.272 95.832H54.616L50.296 108ZM63.328 71.064L57.28 88.056H71.608L65.56 71.064C65.368 70.344 65.152 69.624 64.912 68.904C64.672 68.184 64.528 67.56 64.48 67.032C64.384 67.512 64.216 68.136 63.976 68.904C63.784 69.624 63.568 70.344 63.328 71.064ZM104.056 55.368V108H94.8398V55.368H104.056ZM176.529 55.368L142.185 99.576V85.824L165.657 55.368H176.529ZM144.345 55.368V108H135.129V55.368H144.345ZM152.697 84.96L158.601 77.04L176.745 108H166.089L152.697 84.96ZM192.861 55.368V108H183.645V55.368H192.861ZM224.543 59.76V108H215.327V59.76H224.543ZM199.919 63.864V55.368H239.951V63.864H199.919Z" fill="white"/>
<path d="M45.852 138.532V159H42.268V138.532H45.852ZM50.388 150.292H44.76V147.268H50.192C51.1813 147.268 51.9373 147.025 52.46 146.54C52.9827 146.036 53.244 145.327 53.244 144.412C53.244 143.535 52.9733 142.863 52.432 142.396C51.8907 141.929 51.1067 141.696 50.08 141.696H44.648V138.532H50.388C52.4227 138.532 54.0187 139.027 55.176 140.016C56.3333 141.005 56.912 142.359 56.912 144.076C56.912 145.308 56.6133 146.344 56.016 147.184C55.4187 148.005 54.532 148.603 53.356 148.976V148.584C54.6253 148.883 55.5867 149.443 56.24 150.264C56.8933 151.085 57.22 152.149 57.22 153.456C57.22 154.613 56.9587 155.612 56.436 156.452C55.9133 157.273 55.148 157.908 54.14 158.356C53.1507 158.785 51.956 159 50.556 159H44.648V155.836H50.388C51.4147 155.836 52.1987 155.593 52.74 155.108C53.2813 154.623 53.552 153.923 53.552 153.008C53.552 152.149 53.272 151.487 52.712 151.02C52.1707 150.535 51.396 150.292 50.388 150.292ZM63.4463 159H60.0583V138.168H63.4463V159ZM66.2176 152.056C66.2176 150.619 66.535 149.359 67.1696 148.276C67.8043 147.175 68.6816 146.316 69.8016 145.7C70.9216 145.084 72.191 144.776 73.6096 144.776C75.047 144.776 76.3163 145.084 77.4176 145.7C78.5376 146.316 79.415 147.175 80.0496 148.276C80.6843 149.359 81.0016 150.619 81.0016 152.056C81.0016 153.493 80.6843 154.763 80.0496 155.864C79.415 156.947 78.5376 157.796 77.4176 158.412C76.3163 159.028 75.047 159.336 73.6096 159.336C72.191 159.336 70.9216 159.028 69.8016 158.412C68.6816 157.796 67.8043 156.947 67.1696 155.864C66.535 154.763 66.2176 153.493 66.2176 152.056ZM69.6336 152.056C69.6336 152.896 69.8016 153.633 70.1376 154.268C70.4923 154.903 70.959 155.397 71.5376 155.752C72.135 156.107 72.8256 156.284 73.6096 156.284C74.3936 156.284 75.0843 156.107 75.6816 155.752C76.279 155.397 76.7456 154.903 77.0816 154.268C77.4176 153.633 77.5856 152.896 77.5856 152.056C77.5856 151.197 77.4176 150.46 77.0816 149.844C76.7456 149.209 76.279 148.715 75.6816 148.36C75.0843 148.005 74.3936 147.828 73.6096 147.828C72.8256 147.828 72.135 148.005 71.5376 148.36C70.959 148.715 70.4923 149.209 70.1376 149.844C69.8016 150.46 69.6336 151.197 69.6336 152.056ZM82.8973 152.056C82.8973 150.637 83.1866 149.377 83.7653 148.276C84.3626 147.175 85.1746 146.316 86.2013 145.7C87.2466 145.065 88.4506 144.748 89.8133 144.748C91.6986 144.748 93.2386 145.243 94.4333 146.232C95.6466 147.203 96.3466 148.519 96.5333 150.18H93.1173C92.912 149.396 92.5293 148.808 91.9693 148.416C91.428 148.005 90.7466 147.8 89.9253 147.8C89.216 147.8 88.5813 147.977 88.0213 148.332C87.48 148.668 87.06 149.153 86.7613 149.788C86.4626 150.423 86.3133 151.179 86.3133 152.056C86.3133 152.933 86.4533 153.689 86.7333 154.324C87.0133 154.959 87.4146 155.453 87.9373 155.808C88.4786 156.144 89.1133 156.312 89.8413 156.312C90.7 156.312 91.4093 156.107 91.9693 155.696C92.548 155.285 92.9306 154.697 93.1173 153.932H96.5613C96.412 155.015 96.0293 155.967 95.4133 156.788C94.816 157.591 94.0413 158.225 93.0893 158.692C92.1373 159.14 91.0546 159.364 89.8413 159.364C88.4413 159.364 87.2186 159.065 86.1733 158.468C85.128 157.852 84.316 157.003 83.7373 155.92C83.1773 154.819 82.8973 153.531 82.8973 152.056ZM102.548 159H99.1598V138.168H102.548V150.964L107.924 145.168H112.208L106.944 150.656L112.096 159H108.176L104.564 153.176L102.548 155.276V159ZM113.106 154.8H116.354C116.373 155.397 116.597 155.873 117.026 156.228C117.456 156.583 118.053 156.76 118.818 156.76C119.64 156.76 120.256 156.611 120.666 156.312C121.096 156.013 121.31 155.612 121.31 155.108C121.31 154.772 121.198 154.473 120.974 154.212C120.75 153.951 120.33 153.755 119.714 153.624L117.222 153.036C115.972 152.756 115.038 152.308 114.422 151.692C113.825 151.057 113.526 150.189 113.526 149.088C113.526 148.192 113.76 147.417 114.226 146.764C114.712 146.111 115.365 145.616 116.186 145.28C117.008 144.925 117.95 144.748 119.014 144.748C120.041 144.748 120.946 144.935 121.73 145.308C122.514 145.681 123.121 146.204 123.55 146.876C123.998 147.548 124.232 148.332 124.25 149.228H121.002C121.002 148.631 120.816 148.164 120.442 147.828C120.069 147.473 119.546 147.296 118.874 147.296C118.202 147.296 117.68 147.445 117.306 147.744C116.933 148.043 116.746 148.444 116.746 148.948C116.746 149.713 117.344 150.236 118.538 150.516L121.03 151.104C122.188 151.365 123.056 151.785 123.634 152.364C124.232 152.943 124.53 153.764 124.53 154.828C124.53 155.761 124.288 156.573 123.802 157.264C123.317 157.936 122.636 158.459 121.758 158.832C120.881 159.187 119.873 159.364 118.734 159.364C117.017 159.364 115.645 158.944 114.618 158.104C113.61 157.264 113.106 156.163 113.106 154.8ZM133.306 145.168H141.986V148.024H133.306V145.168ZM142.014 138.308V141.22C141.827 141.22 141.631 141.22 141.426 141.22C141.239 141.22 141.043 141.22 140.838 141.22C139.979 141.22 139.401 141.425 139.102 141.836C138.822 142.247 138.682 142.797 138.682 143.488V159H135.294V143.488C135.294 142.219 135.499 141.201 135.91 140.436C136.321 139.652 136.899 139.083 137.646 138.728C138.393 138.355 139.261 138.168 140.25 138.168C140.53 138.168 140.819 138.177 141.118 138.196C141.435 138.215 141.734 138.252 142.014 138.308ZM142.944 152.056C142.944 150.619 143.262 149.359 143.896 148.276C144.531 147.175 145.408 146.316 146.528 145.7C147.648 145.084 148.918 144.776 150.336 144.776C151.774 144.776 153.043 145.084 154.144 145.7C155.264 146.316 156.142 147.175 156.776 148.276C157.411 149.359 157.728 150.619 157.728 152.056C157.728 153.493 157.411 154.763 156.776 155.864C156.142 156.947 155.264 157.796 154.144 158.412C153.043 159.028 151.774 159.336 150.336 159.336C148.918 159.336 147.648 159.028 146.528 158.412C145.408 157.796 144.531 156.947 143.896 155.864C143.262 154.763 142.944 153.493 142.944 152.056ZM146.36 152.056C146.36 152.896 146.528 153.633 146.864 154.268C147.219 154.903 147.686 155.397 148.264 155.752C148.862 156.107 149.552 156.284 150.336 156.284C151.12 156.284 151.811 156.107 152.408 155.752C153.006 155.397 153.472 154.903 153.808 154.268C154.144 153.633 154.312 152.896 154.312 152.056C154.312 151.197 154.144 150.46 153.808 149.844C153.472 149.209 153.006 148.715 152.408 148.36C151.811 148.005 151.12 147.828 150.336 147.828C149.552 147.828 148.862 148.005 148.264 148.36C147.686 148.715 147.219 149.209 146.864 149.844C146.528 150.46 146.36 151.197 146.36 152.056ZM169.116 145.112V148.276H167.856C166.605 148.276 165.625 148.612 164.916 149.284C164.207 149.937 163.852 150.936 163.852 152.28V159H160.436V145.196H163.656L163.936 148.052H163.6C163.787 147.137 164.225 146.391 164.916 145.812C165.607 145.233 166.503 144.944 167.604 144.944C167.847 144.944 168.089 144.953 168.332 144.972C168.575 144.991 168.836 145.037 169.116 145.112ZM181.019 145.168L185.527 157.936L183.679 161.436L177.407 145.168H181.019ZM177.771 165.412V162.584H179.815C180.263 162.584 180.655 162.528 180.991 162.416C181.327 162.323 181.626 162.136 181.887 161.856C182.167 161.576 182.4 161.165 182.587 160.624L188.327 145.168H191.855L185.079 162.08C184.575 163.349 183.94 164.273 183.175 164.852C182.41 165.431 181.458 165.72 180.319 165.72C179.834 165.72 179.376 165.692 178.947 165.636C178.536 165.599 178.144 165.524 177.771 165.412ZM192.354 152.056C192.354 150.619 192.672 149.359 193.306 148.276C193.941 147.175 194.818 146.316 195.938 145.7C197.058 145.084 198.328 144.776 199.746 144.776C201.184 144.776 202.453 145.084 203.554 145.7C204.674 146.316 205.552 147.175 206.186 148.276C206.821 149.359 207.138 150.619 207.138 152.056C207.138 153.493 206.821 154.763 206.186 155.864C205.552 156.947 204.674 157.796 203.554 158.412C202.453 159.028 201.184 159.336 199.746 159.336C198.328 159.336 197.058 159.028 195.938 158.412C194.818 157.796 193.941 156.947 193.306 155.864C192.672 154.763 192.354 153.493 192.354 152.056ZM195.77 152.056C195.77 152.896 195.938 153.633 196.274 154.268C196.629 154.903 197.096 155.397 197.674 155.752C198.272 156.107 198.962 156.284 199.746 156.284C200.53 156.284 201.221 156.107 201.818 155.752C202.416 155.397 202.882 154.903 203.218 154.268C203.554 153.633 203.722 152.896 203.722 152.056C203.722 151.197 203.554 150.46 203.218 149.844C202.882 149.209 202.416 148.715 201.818 148.36C201.221 148.005 200.53 147.828 199.746 147.828C198.962 147.828 198.272 148.005 197.674 148.36C197.096 148.715 196.629 149.209 196.274 149.844C195.938 150.46 195.77 151.197 195.77 152.056ZM218.898 145.168H222.314V159H219.15L218.898 157.152C218.487 157.805 217.871 158.337 217.05 158.748C216.229 159.159 215.351 159.364 214.418 159.364C212.831 159.364 211.59 158.86 210.694 157.852C209.798 156.844 209.35 155.5 209.35 153.82V145.168H212.766V152.616C212.766 153.923 213.018 154.865 213.522 155.444C214.026 156.023 214.754 156.312 215.706 156.312C216.789 156.312 217.591 155.995 218.114 155.36C218.637 154.707 218.898 153.727 218.898 152.42V145.168ZM234.522 145.112V148.276H233.262C232.011 148.276 231.031 148.612 230.322 149.284C229.613 149.937 229.258 150.936 229.258 152.28V159H225.842V145.196H229.062L229.342 148.052H229.006C229.193 147.137 229.631 146.391 230.322 145.812C231.013 145.233 231.909 144.944 233.01 144.944C233.253 144.944 233.495 144.953 233.738 144.972C233.981 144.991 234.242 145.037 234.522 145.112ZM246.621 159H242.925L250.317 138.532H253.985L261.377 159H257.597L255.945 154.268H248.301L246.621 159ZM251.689 144.636L249.337 151.244H254.909L252.557 144.636C252.483 144.356 252.399 144.076 252.305 143.796C252.212 143.516 252.156 143.273 252.137 143.068C252.1 143.255 252.035 143.497 251.941 143.796C251.867 144.076 251.783 144.356 251.689 144.636ZM267.528 138.532V159H263.944V138.532H267.528ZM283.224 159.364C281.768 159.364 280.61 158.972 279.752 158.188C278.912 157.385 278.492 156.34 278.492 155.052C278.492 153.783 278.93 152.775 279.808 152.028C280.704 151.263 281.973 150.815 283.616 150.684L287.76 150.348V150.04C287.76 149.405 287.638 148.901 287.396 148.528C287.172 148.136 286.845 147.856 286.416 147.688C285.986 147.501 285.482 147.408 284.904 147.408C283.896 147.408 283.121 147.613 282.58 148.024C282.038 148.416 281.768 148.976 281.768 149.704H278.856C278.856 148.696 279.108 147.828 279.612 147.1C280.134 146.353 280.862 145.775 281.796 145.364C282.748 144.953 283.84 144.748 285.072 144.748C286.322 144.748 287.396 144.972 288.292 145.42C289.188 145.849 289.878 146.503 290.364 147.38C290.849 148.239 291.092 149.312 291.092 150.6V159H288.096L287.844 156.956C287.545 157.665 286.966 158.244 286.108 158.692C285.268 159.14 284.306 159.364 283.224 159.364ZM284.316 156.788C285.38 156.788 286.22 156.489 286.836 155.892C287.47 155.295 287.788 154.464 287.788 153.4V152.672L284.904 152.896C283.84 152.989 283.084 153.213 282.636 153.568C282.188 153.904 281.964 154.352 281.964 154.912C281.964 155.528 282.169 155.995 282.58 156.312C282.99 156.629 283.569 156.788 284.316 156.788ZM294.448 165.412V145.168H297.612L297.836 147.268C298.246 146.465 298.881 145.849 299.74 145.42C300.598 144.972 301.541 144.748 302.568 144.748C303.893 144.748 305.032 145.047 305.984 145.644C306.954 146.241 307.71 147.072 308.252 148.136C308.793 149.2 309.064 150.46 309.064 151.916C309.064 153.353 308.812 154.632 308.308 155.752C307.804 156.872 307.066 157.759 306.096 158.412C305.144 159.047 303.977 159.364 302.596 159.364C301.569 159.364 300.626 159.168 299.768 158.776C298.928 158.384 298.293 157.843 297.864 157.152V165.412H294.448ZM297.892 152.084C297.892 152.905 298.05 153.633 298.368 154.268C298.685 154.903 299.133 155.407 299.712 155.78C300.309 156.135 301 156.312 301.784 156.312C302.586 156.312 303.277 156.135 303.856 155.78C304.434 155.407 304.873 154.903 305.172 154.268C305.47 153.633 305.62 152.905 305.62 152.084C305.62 151.263 305.47 150.535 305.172 149.9C304.873 149.265 304.434 148.771 303.856 148.416C303.277 148.043 302.586 147.856 301.784 147.856C301 147.856 300.309 148.033 299.712 148.388C299.133 148.743 298.685 149.237 298.368 149.872C298.05 150.507 297.892 151.244 297.892 152.084ZM311.784 165.412V145.168H314.948L315.172 147.268C315.582 146.465 316.217 145.849 317.076 145.42C317.934 144.972 318.877 144.748 319.904 144.748C321.229 144.748 322.368 145.047 323.32 145.644C324.29 146.241 325.046 147.072 325.588 148.136C326.129 149.2 326.4 150.46 326.4 151.916C326.4 153.353 326.148 154.632 325.644 155.752C325.14 156.872 324.402 157.759 323.432 158.412C322.48 159.047 321.313 159.364 319.932 159.364C318.905 159.364 317.962 159.168 317.104 158.776C316.264 158.384 315.629 157.843 315.2 157.152V165.412H311.784ZM315.228 152.084C315.228 152.905 315.386 153.633 315.704 154.268C316.021 154.903 316.469 155.407 317.048 155.78C317.645 156.135 318.336 156.312 319.12 156.312C319.922 156.312 320.613 156.135 321.192 155.78C321.77 155.407 322.209 154.903 322.508 154.268C322.806 153.633 322.956 152.905 322.956 152.084C322.956 151.263 322.806 150.535 322.508 149.9C322.209 149.265 321.77 148.771 321.192 148.416C320.613 148.043 319.922 147.856 319.12 147.856C318.336 147.856 317.645 148.033 317.048 148.388C316.469 148.743 316.021 149.237 315.704 149.872C315.386 150.507 315.228 151.244 315.228 152.084ZM332.563 159H329.175V138.168H332.563V159ZM336.147 159V145.168H339.563V159H336.147ZM337.827 142.396C337.248 142.396 336.753 142.2 336.343 141.808C335.951 141.397 335.755 140.903 335.755 140.324C335.755 139.745 335.951 139.26 336.343 138.868C336.753 138.476 337.248 138.28 337.827 138.28C338.405 138.28 338.891 138.476 339.283 138.868C339.693 139.26 339.899 139.745 339.899 140.324C339.899 140.903 339.693 141.397 339.283 141.808C338.891 142.2 338.405 142.396 337.827 142.396ZM342.28 152.056C342.28 150.637 342.569 149.377 343.148 148.276C343.745 147.175 344.557 146.316 345.584 145.7C346.629 145.065 347.833 144.748 349.196 144.748C351.081 144.748 352.621 145.243 353.816 146.232C355.029 147.203 355.729 148.519 355.916 150.18H352.5C352.295 149.396 351.912 148.808 351.352 148.416C350.811 148.005 350.129 147.8 349.308 147.8C348.599 147.8 347.964 147.977 347.404 148.332C346.863 148.668 346.443 149.153 346.144 149.788C345.845 150.423 345.696 151.179 345.696 152.056C345.696 152.933 345.836 153.689 346.116 154.324C346.396 154.959 346.797 155.453 347.32 155.808C347.861 156.144 348.496 156.312 349.224 156.312C350.083 156.312 350.792 156.107 351.352 155.696C351.931 155.285 352.313 154.697 352.5 153.932H355.944C355.795 155.015 355.412 155.967 354.796 156.788C354.199 157.591 353.424 158.225 352.472 158.692C351.52 159.14 350.437 159.364 349.224 159.364C347.824 159.364 346.601 159.065 345.556 158.468C344.511 157.852 343.699 157.003 343.12 155.92C342.56 154.819 342.28 153.531 342.28 152.056ZM362.603 159.364C361.147 159.364 359.989 158.972 359.131 158.188C358.291 157.385 357.871 156.34 357.871 155.052C357.871 153.783 358.309 152.775 359.187 152.028C360.083 151.263 361.352 150.815 362.995 150.684L367.139 150.348V150.04C367.139 149.405 367.017 148.901 366.775 148.528C366.551 148.136 366.224 147.856 365.795 147.688C365.365 147.501 364.861 147.408 364.283 147.408C363.275 147.408 362.5 147.613 361.959 148.024C361.417 148.416 361.147 148.976 361.147 149.704H358.235C358.235 148.696 358.487 147.828 358.991 147.1C359.513 146.353 360.241 145.775 361.175 145.364C362.127 144.953 363.219 144.748 364.451 144.748C365.701 144.748 366.775 144.972 367.671 145.42C368.567 145.849 369.257 146.503 369.743 147.38C370.228 148.239 370.471 149.312 370.471 150.6V159H367.475L367.223 156.956C366.924 157.665 366.345 158.244 365.487 158.692C364.647 159.14 363.685 159.364 362.603 159.364ZM363.695 156.788C364.759 156.788 365.599 156.489 366.215 155.892C366.849 155.295 367.167 154.464 367.167 153.4V152.672L364.283 152.896C363.219 152.989 362.463 153.213 362.015 153.568C361.567 153.904 361.343 154.352 361.343 154.912C361.343 155.528 361.548 155.995 361.959 156.312C362.369 156.629 362.948 156.788 363.695 156.788ZM372.263 145.168H380.999V148.024H372.263V145.168ZM378.339 159H374.923V140.856H378.339V159ZM383.151 159V145.168H386.567V159H383.151ZM384.831 142.396C384.252 142.396 383.757 142.2 383.347 141.808C382.955 141.397 382.759 140.903 382.759 140.324C382.759 139.745 382.955 139.26 383.347 138.868C383.757 138.476 384.252 138.28 384.831 138.28C385.409 138.28 385.895 138.476 386.287 138.868C386.697 139.26 386.903 139.745 386.903 140.324C386.903 140.903 386.697 141.397 386.287 141.808C385.895 142.2 385.409 142.396 384.831 142.396ZM389.284 152.056C389.284 150.619 389.601 149.359 390.236 148.276C390.871 147.175 391.748 146.316 392.868 145.7C393.988 145.084 395.257 144.776 396.676 144.776C398.113 144.776 399.383 145.084 400.484 145.7C401.604 146.316 402.481 147.175 403.116 148.276C403.751 149.359 404.068 150.619 404.068 152.056C404.068 153.493 403.751 154.763 403.116 155.864C402.481 156.947 401.604 157.796 400.484 158.412C399.383 159.028 398.113 159.336 396.676 159.336C395.257 159.336 393.988 159.028 392.868 158.412C391.748 157.796 390.871 156.947 390.236 155.864C389.601 154.763 389.284 153.493 389.284 152.056ZM392.7 152.056C392.7 152.896 392.868 153.633 393.204 154.268C393.559 154.903 394.025 155.397 394.604 155.752C395.201 156.107 395.892 156.284 396.676 156.284C397.46 156.284 398.151 156.107 398.748 155.752C399.345 155.397 399.812 154.903 400.148 154.268C400.484 153.633 400.652 152.896 400.652 152.056C400.652 151.197 400.484 150.46 400.148 149.844C399.812 149.209 399.345 148.715 398.748 148.36C398.151 148.005 397.46 147.828 396.676 147.828C395.892 147.828 395.201 148.005 394.604 148.36C394.025 148.715 393.559 149.209 393.204 149.844C392.868 150.46 392.7 151.197 392.7 152.056ZM410.192 159H406.776V145.168H409.94L410.22 146.96C410.649 146.269 411.256 145.728 412.04 145.336C412.842 144.944 413.71 144.748 414.644 144.748C416.38 144.748 417.686 145.261 418.564 146.288C419.46 147.315 419.908 148.715 419.908 150.488V159H416.492V151.3C416.492 150.143 416.23 149.284 415.708 148.724C415.185 148.145 414.476 147.856 413.58 147.856C412.516 147.856 411.685 148.192 411.088 148.864C410.49 149.536 410.192 150.432 410.192 151.552V159ZM422.036 154.8H425.284C425.303 155.397 425.527 155.873 425.956 156.228C426.385 156.583 426.983 156.76 427.748 156.76C428.569 156.76 429.185 156.611 429.596 156.312C430.025 156.013 430.24 155.612 430.24 155.108C430.24 154.772 430.128 154.473 429.904 154.212C429.68 153.951 429.26 153.755 428.644 153.624L426.152 153.036C424.901 152.756 423.968 152.308 423.352 151.692C422.755 151.057 422.456 150.189 422.456 149.088C422.456 148.192 422.689 147.417 423.156 146.764C423.641 146.111 424.295 145.616 425.116 145.28C425.937 144.925 426.88 144.748 427.944 144.748C428.971 144.748 429.876 144.935 430.66 145.308C431.444 145.681 432.051 146.204 432.48 146.876C432.928 147.548 433.161 148.332 433.18 149.228H429.932C429.932 148.631 429.745 148.164 429.372 147.828C428.999 147.473 428.476 147.296 427.804 147.296C427.132 147.296 426.609 147.445 426.236 147.744C425.863 148.043 425.676 148.444 425.676 148.948C425.676 149.713 426.273 150.236 427.468 150.516L429.96 151.104C431.117 151.365 431.985 151.785 432.564 152.364C433.161 152.943 433.46 153.764 433.46 154.828C433.46 155.761 433.217 156.573 432.732 157.264C432.247 157.936 431.565 158.459 430.688 158.832C429.811 159.187 428.803 159.364 427.664 159.364C425.947 159.364 424.575 158.944 423.548 158.104C422.54 157.264 422.036 156.163 422.036 154.8Z" fill="white" fill-opacity="0.8"/>
<g opacity="0.84">
<path d="M46.688 363.88V387.272H42.592V363.88H46.688ZM51.872 377.32H45.44V373.864H51.648C52.7787 373.864 53.6427 373.587 54.24 373.032C54.8373 372.456 55.136 371.646 55.136 370.6C55.136 369.598 54.8267 368.83 54.208 368.296C53.5893 367.763 52.6933 367.496 51.52 367.496H45.312V363.88H51.872C54.1973 363.88 56.0213 364.446 57.344 365.576C58.6667 366.707 59.328 368.254 59.328 370.216C59.328 371.624 58.9867 372.808 58.304 373.768C57.6213 374.707 56.608 375.39 55.264 375.816V375.368C56.7147 375.71 57.8133 376.35 58.56 377.288C59.3067 378.227 59.68 379.443 59.68 380.936C59.68 382.259 59.3813 383.4 58.784 384.36C58.1867 385.299 57.312 386.024 56.16 386.536C55.0293 387.027 53.664 387.272 52.064 387.272H45.312V383.656H51.872C53.0453 383.656 53.9413 383.379 54.56 382.824C55.1787 382.27 55.488 381.47 55.488 380.424C55.488 379.443 55.168 378.686 54.528 378.152C53.9093 377.598 53.024 377.32 51.872 377.32ZM64.8833 371.464L70.0353 386.056L67.9233 390.056L60.7553 371.464H64.8833ZM61.1713 394.6V391.368H63.5073C64.0193 391.368 64.4673 391.304 64.8513 391.176C65.2353 391.07 65.5766 390.856 65.8753 390.536C66.1953 390.216 66.4619 389.747 66.6753 389.128L73.2353 371.464H77.2673L69.5233 390.792C68.9473 392.243 68.2219 393.299 67.3473 393.96C66.4726 394.622 65.3846 394.952 64.0833 394.952C63.5286 394.952 63.0059 394.92 62.5153 394.856C62.0459 394.814 61.5979 394.728 61.1713 394.6Z" fill="white"/>
<rect x="117.03" y="358.258" width="11.6778" height="11.6778" rx="2.95244" transform="rotate(45 117.03 358.258)" fill="white"/>
<rect x="117.03" y="374.773" width="11.6778" height="11.6778" rx="2.95244" transform="rotate(45 117.03 374.773)" fill="white"/>
<rect x="100.515" y="358.258" width="11.6778" height="11.6778" rx="2.95244" transform="rotate(45 100.515 358.258)" fill="white"/>
<rect x="100.515" y="374.773" width="11.6778" height="11.6778" rx="2.95244" transform="rotate(45 100.515 374.773)" fill="white"/>
<path d="M140.033 363.357H144.09L150.769 374.917H151.013L157.693 363.357H161.78V385.195H157.693V374.429L157.937 370.769H157.693L152.142 380.559H149.671L144.09 370.769H143.846L144.09 374.429V385.195H140.033V363.357ZM172.773 369.762C173.932 369.762 174.99 369.966 175.945 370.372C176.921 370.759 177.755 371.308 178.446 372.019C179.158 372.711 179.707 373.544 180.093 374.52C180.5 375.496 180.703 376.564 180.703 377.723C180.703 378.882 180.5 379.949 180.093 380.925C179.707 381.901 179.158 382.745 178.446 383.457C177.755 384.148 176.921 384.697 175.945 385.104C174.99 385.49 173.932 385.683 172.773 385.683C171.614 385.683 170.547 385.49 169.571 385.104C168.615 384.697 167.781 384.148 167.07 383.457C166.378 382.745 165.829 381.901 165.423 380.925C165.036 379.949 164.843 378.882 164.843 377.723C164.843 376.564 165.036 375.496 165.423 374.52C165.829 373.544 166.378 372.711 167.07 372.019C167.781 371.308 168.615 370.759 169.571 370.372C170.547 369.966 171.614 369.762 172.773 369.762ZM172.773 381.993C173.282 381.993 173.77 381.901 174.237 381.718C174.725 381.515 175.152 381.23 175.518 380.864C175.884 380.498 176.169 380.051 176.372 379.522C176.596 378.994 176.708 378.394 176.708 377.723C176.708 377.052 176.596 376.452 176.372 375.923C176.169 375.395 175.884 374.947 175.518 374.581C175.152 374.215 174.725 373.941 174.237 373.758C173.77 373.554 173.282 373.453 172.773 373.453C172.244 373.453 171.746 373.554 171.279 373.758C170.811 373.941 170.394 374.215 170.028 374.581C169.662 374.947 169.367 375.395 169.144 375.923C168.94 376.452 168.839 377.052 168.839 377.723C168.839 378.394 168.94 378.994 169.144 379.522C169.367 380.051 169.662 380.498 170.028 380.864C170.394 381.23 170.811 381.515 171.279 381.718C171.746 381.901 172.244 381.993 172.773 381.993ZM194.403 383.396H194.159C193.793 384.026 193.224 384.565 192.451 385.012C191.679 385.46 190.723 385.683 189.584 385.683C188.629 385.683 187.714 385.49 186.839 385.104C185.985 384.697 185.223 384.148 184.552 383.457C183.901 382.745 183.382 381.901 182.996 380.925C182.61 379.949 182.417 378.882 182.417 377.723C182.417 376.564 182.61 375.496 182.996 374.52C183.382 373.544 183.901 372.711 184.552 372.019C185.223 371.308 185.985 370.759 186.839 370.372C187.714 369.966 188.629 369.762 189.584 369.762C190.723 369.762 191.679 369.986 192.451 370.433C193.224 370.881 193.793 371.419 194.159 372.05H194.403L194.159 369.915V363.357H198.155V385.195H194.403V383.396ZM190.408 381.993C190.936 381.993 191.435 381.901 191.902 381.718C192.39 381.515 192.817 381.23 193.183 380.864C193.549 380.498 193.844 380.051 194.068 379.522C194.291 378.994 194.403 378.394 194.403 377.723C194.403 377.052 194.291 376.452 194.068 375.923C193.844 375.395 193.549 374.947 193.183 374.581C192.817 374.215 192.39 373.941 191.902 373.758C191.435 373.554 190.936 373.453 190.408 373.453C189.879 373.453 189.371 373.554 188.883 373.758C188.415 373.961 187.998 374.246 187.632 374.612C187.266 374.978 186.971 375.425 186.748 375.954C186.524 376.482 186.412 377.072 186.412 377.723C186.412 378.374 186.524 378.963 186.748 379.492C186.971 380.021 187.266 380.468 187.632 380.834C187.998 381.2 188.415 381.485 188.883 381.688C189.371 381.891 189.879 381.993 190.408 381.993ZM215.562 381.596C214.871 382.816 213.936 383.803 212.756 384.555C211.597 385.307 210.174 385.683 208.486 385.683C207.348 385.683 206.29 385.49 205.314 385.104C204.358 384.697 203.525 384.138 202.813 383.426C202.101 382.715 201.542 381.881 201.136 380.925C200.749 379.949 200.556 378.882 200.556 377.723C200.556 376.645 200.749 375.628 201.136 374.673C201.522 373.697 202.061 372.853 202.752 372.141C203.443 371.409 204.257 370.83 205.192 370.403C206.148 369.976 207.195 369.762 208.334 369.762C209.533 369.762 210.601 369.966 211.536 370.372C212.472 370.759 213.254 371.308 213.885 372.019C214.515 372.711 214.993 373.534 215.318 374.49C215.644 375.445 215.806 376.482 215.806 377.601C215.806 377.743 215.806 377.865 215.806 377.967C215.786 378.089 215.776 378.201 215.776 378.302C215.756 378.404 215.745 378.516 215.745 378.638H204.491C204.572 379.248 204.735 379.777 204.979 380.224C205.243 380.651 205.558 381.017 205.924 381.322C206.311 381.607 206.727 381.82 207.175 381.962C207.622 382.084 208.08 382.145 208.547 382.145C209.462 382.145 210.215 381.942 210.804 381.535C211.414 381.108 211.892 380.58 212.238 379.949L215.562 381.596ZM211.933 375.801C211.912 375.537 211.821 375.242 211.658 374.917C211.516 374.591 211.292 374.286 210.987 374.002C210.703 373.717 210.337 373.483 209.889 373.3C209.462 373.117 208.944 373.026 208.334 373.026C207.48 373.026 206.727 373.27 206.077 373.758C205.426 374.246 204.968 374.927 204.704 375.801H211.933ZM218.358 385.195V363.357H222.354V385.195H218.358ZM226.263 363.357H234.803C235.738 363.357 236.613 363.51 237.426 363.815C238.239 364.099 238.941 364.506 239.531 365.035C240.141 365.543 240.618 366.143 240.964 366.834C241.31 367.525 241.483 368.268 241.483 369.061C241.483 370.22 241.198 371.196 240.629 371.989C240.08 372.761 239.388 373.351 238.555 373.758V374.002C239.673 374.408 240.568 375.049 241.239 375.923C241.93 376.777 242.276 377.845 242.276 379.126C242.276 380.061 242.082 380.905 241.696 381.657C241.33 382.389 240.822 383.02 240.171 383.548C239.52 384.077 238.758 384.484 237.884 384.768C237.03 385.053 236.104 385.195 235.108 385.195H226.263V363.357ZM234.498 372.263C235.454 372.263 236.186 372.009 236.694 371.501C237.223 370.972 237.487 370.352 237.487 369.64C237.487 368.928 237.233 368.318 236.724 367.81C236.216 367.302 235.515 367.048 234.62 367.048H230.38V372.263H234.498ZM234.955 381.413C235.992 381.413 236.785 381.159 237.335 380.651C237.884 380.122 238.158 379.451 238.158 378.638C238.158 377.824 237.873 377.153 237.304 376.625C236.755 376.076 235.931 375.801 234.833 375.801H230.38V381.413H234.955ZM252.033 369.762C253.192 369.762 254.249 369.966 255.205 370.372C256.181 370.759 257.015 371.308 257.706 372.019C258.418 372.711 258.967 373.544 259.353 374.52C259.76 375.496 259.963 376.564 259.963 377.723C259.963 378.882 259.76 379.949 259.353 380.925C258.967 381.901 258.418 382.745 257.706 383.457C257.015 384.148 256.181 384.697 255.205 385.104C254.249 385.49 253.192 385.683 252.033 385.683C250.874 385.683 249.806 385.49 248.83 385.104C247.875 384.697 247.041 384.148 246.329 383.457C245.638 382.745 245.089 381.901 244.682 380.925C244.296 379.949 244.103 378.882 244.103 377.723C244.103 376.564 244.296 375.496 244.682 374.52C245.089 373.544 245.638 372.711 246.329 372.019C247.041 371.308 247.875 370.759 248.83 370.372C249.806 369.966 250.874 369.762 252.033 369.762ZM252.033 381.993C252.541 381.993 253.029 381.901 253.497 381.718C253.985 381.515 254.412 381.23 254.778 380.864C255.144 380.498 255.429 380.051 255.632 379.522C255.856 378.994 255.967 378.394 255.967 377.723C255.967 377.052 255.856 376.452 255.632 375.923C255.429 375.395 255.144 374.947 254.778 374.581C254.412 374.215 253.985 373.941 253.497 373.758C253.029 373.554 252.541 373.453 252.033 373.453C251.504 373.453 251.006 373.554 250.538 373.758C250.071 373.941 249.654 374.215 249.288 374.581C248.922 374.947 248.627 375.395 248.403 375.923C248.2 376.452 248.098 377.052 248.098 377.723C248.098 378.394 248.2 378.994 248.403 379.522C248.627 380.051 248.922 380.498 249.288 380.864C249.654 381.23 250.071 381.515 250.538 381.718C251.006 381.901 251.504 381.993 252.033 381.993ZM265.954 377.601L260.829 370.25H265.557L268.272 374.398H268.485L271.047 370.25H275.927L270.681 377.601L275.927 385.195H271.23L268.424 380.925H268.211L265.496 385.195H260.768L265.954 377.601Z" fill="white"/>
</g>
<rect x="830" y="40" width="210" height="64" rx="24" fill="white"/>
<path d="M856.12 63.864H859.288L862.504 76.896H862.6L865.984 63.864H868.888L872.272 76.896H872.368L875.584 63.864H878.752L873.808 81H870.832L867.496 68.112H867.4L864.04 81H861.04L856.12 63.864ZM880.315 63.528H883.051V70.248C883.507 69.552 884.083 69.048 884.755 68.712C885.355 68.4 886.051 68.256 886.843 68.256C888.355 68.256 889.483 68.688 890.227 69.576C890.923 70.416 891.283 71.664 891.283 73.32V81H888.547V73.8C888.547 72.744 888.331 71.928 887.923 71.376C887.443 70.776 886.747 70.488 885.811 70.488C884.947 70.488 884.275 70.824 883.795 71.496C883.291 72.168 883.051 73.008 883.051 74.064V81H880.315V63.528ZM899.927 68.256C901.799 68.256 903.311 68.856 904.463 70.104C905.591 71.328 906.167 72.888 906.167 74.808C906.167 76.704 905.591 78.264 904.487 79.464C903.335 80.712 901.799 81.336 899.927 81.336C898.031 81.336 896.519 80.712 895.367 79.464C894.239 78.264 893.687 76.704 893.687 74.808C893.687 72.888 894.239 71.328 895.391 70.104C896.519 68.856 898.031 68.256 899.927 68.256ZM899.927 70.488C898.775 70.488 897.911 70.92 897.287 71.832C896.759 72.6 896.495 73.608 896.495 74.808C896.495 76.008 896.759 76.992 897.287 77.76C897.911 78.648 898.775 79.104 899.927 79.104C901.055 79.104 901.943 78.648 902.567 77.76C903.095 76.968 903.383 75.984 903.383 74.808C903.383 73.608 903.095 72.6 902.567 71.832C901.943 70.92 901.055 70.488 899.927 70.488ZM922.189 68.256C924.013 68.256 925.381 68.712 926.245 69.624C927.013 70.416 927.397 71.568 927.397 73.08V81H924.853V79.368C924.373 79.992 923.773 80.448 923.077 80.784C922.285 81.144 921.349 81.336 920.269 81.336C918.973 81.336 917.965 81 917.221 80.352C916.453 79.68 916.069 78.84 916.069 77.808C916.069 76.416 916.597 75.336 917.701 74.592C918.709 73.872 920.125 73.488 921.949 73.44L924.661 73.368V72.888C924.661 71.256 923.773 70.464 921.997 70.464C921.229 70.464 920.629 70.584 920.173 70.872C919.645 71.184 919.285 71.664 919.141 72.312L916.429 72.096C916.693 70.728 917.365 69.72 918.445 69.096C919.357 68.52 920.605 68.256 922.189 68.256ZM924.661 75.336L922.141 75.408C919.957 75.456 918.877 76.224 918.877 77.712C918.877 78.144 919.045 78.504 919.429 78.792C919.813 79.08 920.293 79.248 920.893 79.248C921.949 79.248 922.837 78.936 923.557 78.336C924.277 77.712 924.661 76.92 924.661 75.96V75.336ZM936.14 68.256C936.74 68.256 937.268 68.352 937.7 68.568V71.304C937.076 71.112 936.5 71.04 935.924 71.04C935.204 71.04 934.556 71.304 933.98 71.88C933.308 72.528 932.996 73.368 932.996 74.424V81H930.284V68.592H932.996V70.368C933.332 69.744 933.716 69.264 934.172 68.928C934.724 68.472 935.372 68.256 936.14 68.256ZM944.54 68.256C946.58 68.256 948.14 68.928 949.22 70.32C950.204 71.568 950.708 73.32 950.708 75.552H941.42C941.516 76.704 941.828 77.592 942.356 78.192C942.884 78.792 943.652 79.104 944.636 79.104C945.476 79.104 946.148 78.912 946.676 78.528C947.084 78.216 947.444 77.712 947.78 77.016H950.516C950.228 78.168 949.652 79.152 948.788 79.92C947.684 80.856 946.316 81.336 944.66 81.336C942.812 81.336 941.348 80.76 940.268 79.632C939.116 78.456 938.54 76.848 938.54 74.784C938.54 72.936 939.068 71.4 940.172 70.152C941.228 68.88 942.692 68.256 944.54 68.256ZM944.612 70.488C943.7 70.488 943.004 70.728 942.476 71.256C941.972 71.76 941.636 72.504 941.468 73.488H947.852C947.612 71.472 946.532 70.488 944.612 70.488ZM959.55 68.592H962.526L965.814 77.424L968.958 68.592H971.934L965.214 85.752H962.286L964.47 80.712L959.55 68.592ZM979.263 68.256C981.135 68.256 982.647 68.856 983.799 70.104C984.927 71.328 985.503 72.888 985.503 74.808C985.503 76.704 984.927 78.264 983.823 79.464C982.671 80.712 981.135 81.336 979.263 81.336C977.367 81.336 975.855 80.712 974.703 79.464C973.575 78.264 973.023 76.704 973.023 74.808C973.023 72.888 973.575 71.328 974.727 70.104C975.855 68.856 977.367 68.256 979.263 68.256ZM979.263 70.488C978.111 70.488 977.247 70.92 976.623 71.832C976.095 72.6 975.831 73.608 975.831 74.808C975.831 76.008 976.095 76.992 976.623 77.76C977.247 78.648 978.111 79.104 979.263 79.104C980.391 79.104 981.279 78.648 981.903 77.76C982.431 76.968 982.719 75.984 982.719 74.808C982.719 73.608 982.431 72.6 981.903 71.832C981.279 70.92 980.391 70.488 979.263 70.488ZM987.893 68.592H990.629V76.152C990.629 77.16 990.821 77.88 991.253 78.36C991.685 78.816 992.357 79.056 993.317 79.056C993.917 79.056 994.493 78.792 995.045 78.288C995.597 77.76 996.005 77.064 996.245 76.176V68.592H998.981V81H996.245V79.392C995.189 80.688 993.893 81.336 992.357 81.336C989.381 81.336 987.893 79.656 987.893 76.32V68.592ZM1007.38 63.528C1008.94 63.528 1010.21 63.936 1011.17 64.8C1012.13 65.64 1012.61 66.792 1012.61 68.256C1012.61 69.456 1012.3 70.44 1011.73 71.208C1011.51 71.448 1010.81 72.096 1009.66 73.104C1009.23 73.44 1008.92 73.848 1008.7 74.28C1008.46 74.76 1008.34 75.288 1008.34 75.864V76.2H1005.58V75.864C1005.58 74.952 1005.73 74.16 1006.06 73.512C1006.37 72.864 1007.31 71.856 1008.87 70.464L1009.16 70.128C1009.59 69.6 1009.81 69.024 1009.81 68.424C1009.81 67.632 1009.57 67.008 1009.13 66.552C1008.68 66.096 1008.03 65.88 1007.21 65.88C1006.18 65.88 1005.44 66.192 1004.96 66.84C1004.55 67.392 1004.36 68.184 1004.36 69.216H1001.62C1001.62 67.44 1002.13 66.048 1003.18 65.04C1004.21 64.032 1005.61 63.528 1007.38 63.528ZM1006.95 77.376C1007.48 77.376 1007.93 77.544 1008.29 77.88C1008.63 78.216 1008.82 78.648 1008.82 79.176C1008.82 79.704 1008.63 80.16 1008.29 80.496C1007.91 80.832 1007.48 81 1006.95 81C1006.42 81 1005.99 80.808 1005.65 80.472C1005.27 80.136 1005.1 79.704 1005.1 79.176C1005.1 78.648 1005.27 78.216 1005.65 77.88C1005.99 77.544 1006.42 77.376 1006.95 77.376Z" fill="black" fill-opacity="0.6"/>
<rect x="534" y="129" width="426" height="210" rx="24" fill="white"/>
<path d="M556.68 157.864H559.488V165.016H568.176V157.864H570.984V175H568.176V167.416H559.488V175H556.68V157.864ZM579.392 162.256C581.432 162.256 582.992 162.928 584.072 164.32C585.056 165.568 585.56 167.32 585.56 169.552H576.272C576.368 170.704 576.68 171.592 577.208 172.192C577.736 172.792 578.504 173.104 579.488 173.104C580.328 173.104 581 172.912 581.528 172.528C581.936 172.216 582.296 171.712 582.632 171.016H585.368C585.08 172.168 584.504 173.152 583.64 173.92C582.536 174.856 581.168 175.336 579.512 175.336C577.664 175.336 576.2 174.76 575.12 173.632C573.968 172.456 573.392 170.848 573.392 168.784C573.392 166.936 573.92 165.4 575.024 164.152C576.08 162.88 577.544 162.256 579.392 162.256ZM579.464 164.488C578.552 164.488 577.856 164.728 577.328 165.256C576.824 165.76 576.488 166.504 576.32 167.488H582.704C582.464 165.472 581.384 164.488 579.464 164.488ZM586.409 162.592H589.385L592.673 171.424L595.817 162.592H598.793L592.073 179.752H589.145L591.329 174.712L586.409 162.592ZM612.242 158.584V162.592H615.002V164.848H612.242V171.856C612.242 172.144 612.29 172.36 612.434 172.528C612.578 172.672 612.77 172.744 613.058 172.744H614.69V175H612.602C611.522 175 610.73 174.712 610.226 174.136C609.746 173.608 609.506 172.864 609.506 171.856V164.848H607.274V162.592H609.506V159.712L612.242 158.584ZM617.049 157.528H619.785V164.248C620.241 163.552 620.817 163.048 621.489 162.712C622.089 162.4 622.785 162.256 623.577 162.256C625.089 162.256 626.217 162.688 626.961 163.576C627.657 164.416 628.017 165.664 628.017 167.32V175H625.281V167.8C625.281 166.744 625.065 165.928 624.657 165.376C624.177 164.776 623.481 164.488 622.545 164.488C621.681 164.488 621.009 164.824 620.529 165.496C620.025 166.168 619.785 167.008 619.785 168.064V175H617.049V157.528ZM636.181 162.256C638.221 162.256 639.781 162.928 640.861 164.32C641.845 165.568 642.349 167.32 642.349 169.552H633.061C633.157 170.704 633.469 171.592 633.997 172.192C634.525 172.792 635.293 173.104 636.277 173.104C637.117 173.104 637.789 172.912 638.317 172.528C638.725 172.216 639.085 171.712 639.421 171.016H642.157C641.869 172.168 641.293 173.152 640.429 173.92C639.325 174.856 637.957 175.336 636.301 175.336C634.453 175.336 632.989 174.76 631.909 173.632C630.757 172.456 630.181 170.848 630.181 168.784C630.181 166.936 630.709 165.4 631.813 164.152C632.869 162.88 634.333 162.256 636.181 162.256ZM636.253 164.488C635.341 164.488 634.645 164.728 634.117 165.256C633.613 165.76 633.277 166.504 633.109 167.488H639.493C639.253 165.472 638.173 164.488 636.253 164.488ZM650.374 162.256C650.974 162.256 651.502 162.352 651.934 162.568V165.304C651.31 165.112 650.734 165.04 650.158 165.04C649.438 165.04 648.79 165.304 648.214 165.88C647.542 166.528 647.23 167.368 647.23 168.424V175H644.518V162.592H647.23V164.368C647.566 163.744 647.95 163.264 648.406 162.928C648.958 162.472 649.606 162.256 650.374 162.256ZM658.775 162.256C660.815 162.256 662.375 162.928 663.455 164.32C664.439 165.568 664.943 167.32 664.943 169.552H655.655C655.751 170.704 656.063 171.592 656.591 172.192C657.119 172.792 657.887 173.104 658.871 173.104C659.711 173.104 660.383 172.912 660.911 172.528C661.319 172.216 661.679 171.712 662.015 171.016H664.751C664.463 172.168 663.887 173.152 663.023 173.92C661.919 174.856 660.551 175.336 658.895 175.336C657.047 175.336 655.583 174.76 654.503 173.632C653.351 172.456 652.775 170.848 652.775 168.784C652.775 166.936 653.303 165.4 654.407 164.152C655.463 162.88 656.927 162.256 658.775 162.256ZM658.847 164.488C657.935 164.488 657.239 164.728 656.711 165.256C656.207 165.76 655.871 166.504 655.703 167.488H662.087C661.847 165.472 660.767 164.488 658.847 164.488ZM668.048 157.864H671.288L670.688 170.08H668.648L668.048 157.864ZM669.656 171.376C670.184 171.376 670.64 171.544 671 171.88C671.336 172.216 671.528 172.648 671.528 173.176C671.528 173.704 671.336 174.16 671 174.496C670.616 174.832 670.184 175 669.656 175C669.128 175 668.696 174.808 668.36 174.472C667.976 174.136 667.808 173.704 667.808 173.176C667.808 172.648 667.976 172.216 668.36 171.88C668.696 171.544 669.128 171.376 669.656 171.376ZM683.336 157.864H686.144V175H683.336V157.864ZM689.74 157.864H692.644L692.284 164.008H690.124L689.74 157.864ZM702.106 162.256C703.93 162.256 705.226 162.928 706.018 164.272C706.594 163.504 707.194 162.976 707.818 162.688C708.37 162.4 709.066 162.256 709.906 162.256C711.178 162.256 712.234 162.664 713.098 163.528C713.914 164.392 714.346 165.496 714.346 166.864V175H711.61V167.344C711.61 166.36 711.394 165.64 710.986 165.208C710.554 164.752 709.882 164.536 708.922 164.536C708.25 164.536 707.698 164.776 707.242 165.304C706.762 165.808 706.546 166.504 706.546 167.416V175H703.81V167.368C703.81 165.472 702.994 164.536 701.362 164.536C700.57 164.536 699.946 164.824 699.466 165.448C698.986 166.024 698.746 166.744 698.746 167.56V175H696.01V162.592H698.746V163.864C699.778 162.784 700.906 162.256 702.106 162.256ZM730.325 157.864H733.517L740.069 175H737.069L735.509 170.704H728.333L726.773 175H723.773L730.325 157.864ZM729.173 168.4H734.669L731.981 160.888H731.885L729.173 168.4ZM741.743 157.528H744.479V175H741.743V157.528ZM766.604 157.864H770.156L762.62 165.208L771.284 175H767.492L760.724 167.056L758.636 169.096V175H755.828V157.864H758.636V165.952L766.604 157.864ZM774.569 157.528C775.097 157.528 775.553 157.696 775.913 158.032C776.249 158.368 776.441 158.8 776.441 159.328C776.441 159.856 776.249 160.312 775.889 160.648C775.529 160.984 775.097 161.152 774.569 161.152C774.041 161.152 773.609 160.984 773.249 160.648C772.889 160.288 772.721 159.856 772.721 159.328C772.721 158.8 772.889 158.368 773.249 158.032C773.609 157.696 774.041 157.528 774.569 157.528ZM773.201 162.592H775.937V175H773.201V162.592ZM783.219 158.584V162.592H785.979V164.848H783.219V171.856C783.219 172.144 783.267 172.36 783.411 172.528C783.555 172.672 783.747 172.744 784.035 172.744H785.667V175H783.579C782.499 175 781.707 174.712 781.203 174.136C780.723 173.608 780.483 172.864 780.483 171.856V164.848H778.251V162.592H780.483V159.712L783.219 158.584ZM789.898 171.376C790.546 171.376 791.098 171.64 791.53 172.168C791.938 172.696 792.154 173.392 792.154 174.232C792.154 175.504 791.77 176.608 791.05 177.568C790.306 178.504 789.298 179.152 788.05 179.512V177.928C788.698 177.688 789.25 177.304 789.706 176.776C790.114 176.2 790.33 175.648 790.33 175.072C790.186 175.12 789.994 175.168 789.73 175.168C789.202 175.168 788.77 174.976 788.41 174.616C788.05 174.256 787.882 173.8 787.882 173.272C787.882 172.696 788.074 172.24 788.458 171.904C788.818 171.544 789.298 171.376 789.898 171.376ZM801.308 162.592H804.284L807.572 171.424L810.716 162.592H813.692L806.972 179.752H804.044L806.228 174.712L801.308 162.592ZM821.02 162.256C822.892 162.256 824.404 162.856 825.556 164.104C826.684 165.328 827.26 166.888 827.26 168.808C827.26 170.704 826.684 172.264 825.58 173.464C824.428 174.712 822.892 175.336 821.02 175.336C819.124 175.336 817.612 174.712 816.46 173.464C815.332 172.264 814.78 170.704 814.78 168.808C814.78 166.888 815.332 165.328 816.484 164.104C817.612 162.856 819.124 162.256 821.02 162.256ZM821.02 164.488C819.868 164.488 819.004 164.92 818.38 165.832C817.852 166.6 817.588 167.608 817.588 168.808C817.588 170.008 817.852 170.992 818.38 171.76C819.004 172.648 819.868 173.104 821.02 173.104C822.148 173.104 823.036 172.648 823.66 171.76C824.188 170.968 824.476 169.984 824.476 168.808C824.476 167.608 824.188 166.6 823.66 165.832C823.036 164.92 822.148 164.488 821.02 164.488ZM829.651 162.592H832.387V170.152C832.387 171.16 832.579 171.88 833.011 172.36C833.443 172.816 834.115 173.056 835.075 173.056C835.675 173.056 836.251 172.792 836.803 172.288C837.355 171.76 837.763 171.064 838.003 170.176V162.592H840.739V175H838.003V173.392C836.947 174.688 835.651 175.336 834.115 175.336C831.139 175.336 829.651 173.656 829.651 170.32V162.592ZM849.476 162.256C850.076 162.256 850.604 162.352 851.036 162.568V165.304C850.412 165.112 849.836 165.04 849.26 165.04C848.54 165.04 847.892 165.304 847.316 165.88C846.644 166.528 846.332 167.368 846.332 168.424V175H843.62V162.592H846.332V164.368C846.668 163.744 847.052 163.264 847.508 162.928C848.06 162.472 848.708 162.256 849.476 162.256ZM864.476 158.584V162.592H867.236V164.848H864.476V171.856C864.476 172.144 864.524 172.36 864.668 172.528C864.812 172.672 865.004 172.744 865.292 172.744H866.924V175H864.836C863.756 175 862.964 174.712 862.46 174.136C861.98 173.608 861.74 172.864 861.74 171.856V164.848H859.508V162.592H861.74V159.712L864.476 158.584ZM875.14 162.256C875.74 162.256 876.268 162.352 876.7 162.568V165.304C876.076 165.112 875.5 165.04 874.924 165.04C874.204 165.04 873.556 165.304 872.98 165.88C872.308 166.528 871.996 167.368 871.996 168.424V175H869.284V162.592H871.996V164.368C872.332 163.744 872.716 163.264 873.172 162.928C873.724 162.472 874.372 162.256 875.14 162.256ZM878.26 162.592H880.996V170.152C880.996 171.16 881.188 171.88 881.62 172.36C882.052 172.816 882.724 173.056 883.684 173.056C884.284 173.056 884.86 172.792 885.412 172.288C885.964 171.76 886.372 171.064 886.612 170.176V162.592H889.348V175H886.612V173.392C885.556 174.688 884.26 175.336 882.724 175.336C879.748 175.336 878.26 173.656 878.26 170.32V162.592ZM896.909 162.256C900.173 162.256 901.973 163.552 902.261 166.192H899.597C899.405 165.568 899.117 165.112 898.733 164.872C898.325 164.608 897.701 164.488 896.861 164.488C896.141 164.488 895.589 164.584 895.229 164.8C894.797 165.016 894.605 165.352 894.605 165.832C894.605 166.216 894.917 166.576 895.589 166.864C895.997 167.032 896.813 167.272 898.061 167.584C899.453 167.92 900.509 168.304 901.181 168.76C902.165 169.384 902.669 170.272 902.669 171.376C902.669 174.016 900.797 175.336 897.077 175.336C893.621 175.336 891.773 173.872 891.509 170.968H894.173C894.317 171.76 894.605 172.312 895.013 172.648C895.421 172.936 896.069 173.104 896.981 173.104C898.901 173.104 899.861 172.576 899.861 171.568C899.861 170.992 899.501 170.536 898.781 170.2C898.397 170.008 897.581 169.792 896.333 169.504C894.869 169.168 893.837 168.808 893.237 168.424C892.277 167.824 891.797 166.984 891.797 165.904C891.797 164.752 892.253 163.864 893.213 163.24C894.149 162.568 895.373 162.256 896.909 162.256ZM908.726 158.584V162.592H911.486V164.848H908.726V171.856C908.726 172.144 908.774 172.36 908.918 172.528C909.062 172.672 909.254 172.744 909.542 172.744H911.174V175H909.086C908.006 175 907.214 174.712 906.71 174.136C906.23 173.608 905.99 172.864 905.99 171.856V164.848H903.758V162.592H905.99V159.712L908.726 158.584ZM912.214 162.592H915.19L918.478 171.424L921.622 162.592H924.598L917.878 179.752H914.95L917.134 174.712L912.214 162.592ZM560.328 192.584V196.592H563.088V198.848H560.328V205.856C560.328 206.144 560.376 206.36 560.52 206.528C560.664 206.672 560.856 206.744 561.144 206.744H562.776V209H560.688C559.608 209 558.816 208.712 558.312 208.136C557.832 207.608 557.592 206.864 557.592 205.856V198.848H555.36V196.592H557.592V193.712L560.328 192.584ZM570.895 196.256C572.767 196.256 574.279 196.856 575.431 198.104C576.559 199.328 577.135 200.888 577.135 202.808C577.135 204.704 576.559 206.264 575.455 207.464C574.303 208.712 572.767 209.336 570.895 209.336C568.999 209.336 567.487 208.712 566.335 207.464C565.207 206.264 564.655 204.704 564.655 202.808C564.655 200.888 565.207 199.328 566.359 198.104C567.487 196.856 568.999 196.256 570.895 196.256ZM570.895 198.488C569.743 198.488 568.879 198.92 568.255 199.832C567.727 200.6 567.463 201.608 567.463 202.808C567.463 204.008 567.727 204.992 568.255 205.76C568.879 206.648 569.743 207.104 570.895 207.104C572.023 207.104 572.911 206.648 573.535 205.76C574.063 204.968 574.351 203.984 574.351 202.808C574.351 201.608 574.063 200.6 573.535 199.832C572.911 198.92 572.023 198.488 570.895 198.488ZM585.286 196.256C587.158 196.256 588.67 196.856 589.822 198.104C590.95 199.328 591.526 200.888 591.526 202.808C591.526 204.704 590.95 206.264 589.846 207.464C588.694 208.712 587.158 209.336 585.286 209.336C583.39 209.336 581.878 208.712 580.726 207.464C579.598 206.264 579.046 204.704 579.046 202.808C579.046 200.888 579.598 199.328 580.75 198.104C581.878 196.856 583.39 196.256 585.286 196.256ZM585.286 198.488C584.134 198.488 583.27 198.92 582.646 199.832C582.118 200.6 581.854 201.608 581.854 202.808C581.854 204.008 582.118 204.992 582.646 205.76C583.27 206.648 584.134 207.104 585.286 207.104C586.414 207.104 587.302 206.648 587.926 205.76C588.454 204.968 588.742 203.984 588.742 202.808C588.742 201.608 588.454 200.6 587.926 199.832C587.302 198.92 586.414 198.488 585.286 198.488ZM594.157 191.528H596.893V209H594.157V191.528ZM600.01 191.528H602.746V201.512L607.834 196.592H611.362L605.866 201.728L611.842 209H608.338L603.994 203.48L602.746 204.656V209H600.01V191.528ZM615.124 191.528C615.652 191.528 616.108 191.696 616.468 192.032C616.804 192.368 616.996 192.8 616.996 193.328C616.996 193.856 616.804 194.312 616.444 194.648C616.084 194.984 615.652 195.152 615.124 195.152C614.596 195.152 614.164 194.984 613.804 194.648C613.444 194.288 613.276 193.856 613.276 193.328C613.276 192.8 613.444 192.368 613.804 192.032C614.164 191.696 614.596 191.528 615.124 191.528ZM613.756 196.592H616.492V209H613.756V196.592ZM623.773 192.584V196.592H626.533V198.848H623.773V205.856C623.773 206.144 623.821 206.36 623.965 206.528C624.109 206.672 624.301 206.744 624.589 206.744H626.221V209H624.133C623.053 209 622.261 208.712 621.757 208.136C621.277 207.608 621.037 206.864 621.037 205.856V198.848H618.805V196.592H621.037V193.712L623.773 192.584ZM641.445 191.864H644.085V194.168H641.829C641.469 194.168 641.205 194.264 641.013 194.456C640.821 194.648 640.749 194.936 640.749 195.344V196.592H643.917V198.824H640.749V209H638.013V198.824H635.253V196.592H638.013V195.272C638.013 194.216 638.301 193.376 638.901 192.776C639.477 192.152 640.341 191.864 641.445 191.864ZM651.403 196.256C653.275 196.256 654.787 196.856 655.939 198.104C657.067 199.328 657.643 200.888 657.643 202.808C657.643 204.704 657.067 206.264 655.963 207.464C654.811 208.712 653.275 209.336 651.403 209.336C649.507 209.336 647.995 208.712 646.843 207.464C645.715 206.264 645.163 204.704 645.163 202.808C645.163 200.888 645.715 199.328 646.867 198.104C647.995 196.856 649.507 196.256 651.403 196.256ZM651.403 198.488C650.251 198.488 649.387 198.92 648.763 199.832C648.235 200.6 647.971 201.608 647.971 202.808C647.971 204.008 648.235 204.992 648.763 205.76C649.387 206.648 650.251 207.104 651.403 207.104C652.531 207.104 653.419 206.648 654.043 205.76C654.571 204.968 654.859 203.984 654.859 202.808C654.859 201.608 654.571 200.6 654.043 199.832C653.419 198.92 652.531 198.488 651.403 198.488ZM665.89 196.256C666.49 196.256 667.018 196.352 667.45 196.568V199.304C666.826 199.112 666.25 199.04 665.674 199.04C664.954 199.04 664.306 199.304 663.73 199.88C663.058 200.528 662.746 201.368 662.746 202.424V209H660.034V196.592H662.746V198.368C663.082 197.744 663.466 197.264 663.922 196.928C664.474 196.472 665.122 196.256 665.89 196.256ZM677.003 191.528H679.739V198.296C680.747 196.928 681.995 196.256 683.435 196.256C685.211 196.256 686.603 196.904 687.635 198.2C688.571 199.4 689.051 200.912 689.051 202.736C689.051 204.632 688.571 206.192 687.611 207.392C686.555 208.688 685.115 209.336 683.291 209.336C681.659 209.336 680.411 208.784 679.547 207.68V209H677.003V191.528ZM682.787 198.464C681.898 198.464 681.179 198.824 680.603 199.544C679.955 200.312 679.643 201.368 679.643 202.688V202.88C679.643 204.08 679.883 205.088 680.411 205.856C680.987 206.696 681.803 207.128 682.883 207.128C684.083 207.128 684.971 206.696 685.547 205.832C686.003 205.112 686.243 204.08 686.243 202.736C686.243 201.392 685.979 200.384 685.499 199.688C684.923 198.872 684.011 198.464 682.787 198.464ZM691.44 196.592H694.176V204.152C694.176 205.16 694.368 205.88 694.8 206.36C695.232 206.816 695.904 207.056 696.864 207.056C697.464 207.056 698.04 206.792 698.592 206.288C699.144 205.76 699.552 205.064 699.792 204.176V196.592H702.528V209H699.792V207.392C698.736 208.688 697.44 209.336 695.904 209.336C692.928 209.336 691.44 207.656 691.44 204.32V196.592ZM707.257 191.528C707.785 191.528 708.241 191.696 708.601 192.032C708.937 192.368 709.129 192.8 709.129 193.328C709.129 193.856 708.937 194.312 708.577 194.648C708.217 194.984 707.785 195.152 707.257 195.152C706.729 195.152 706.297 194.984 705.937 194.648C705.577 194.288 705.409 193.856 705.409 193.328C705.409 192.8 705.577 192.368 705.937 192.032C706.297 191.696 706.729 191.528 707.257 191.528ZM705.889 196.592H708.625V209H705.889V196.592ZM712.258 191.528H714.994V209H712.258V191.528ZM726.944 191.528H729.68V209H727.136V207.68C726.272 208.784 725.024 209.336 723.392 209.336C721.544 209.336 720.104 208.688 719.072 207.392C718.112 206.192 717.632 204.632 717.632 202.736C717.632 200.912 718.088 199.4 719.048 198.2C720.056 196.904 721.472 196.256 723.248 196.256C724.688 196.256 725.912 196.928 726.944 198.296V191.528ZM723.896 198.464C722.648 198.464 721.76 198.872 721.184 199.688C720.68 200.384 720.44 201.392 720.44 202.736C720.44 204.08 720.656 205.112 721.136 205.832C721.688 206.696 722.576 207.128 723.8 207.128C724.856 207.128 725.696 206.696 726.272 205.856C726.776 205.088 727.04 204.08 727.04 202.88V202.688C727.04 201.368 726.704 200.312 726.08 199.544C725.504 198.824 724.76 198.464 723.896 198.464ZM734.397 191.528C734.925 191.528 735.381 191.696 735.741 192.032C736.077 192.368 736.269 192.8 736.269 193.328C736.269 193.856 736.077 194.312 735.717 194.648C735.357 194.984 734.925 195.152 734.397 195.152C733.869 195.152 733.437 194.984 733.077 194.648C732.717 194.288 732.549 193.856 732.549 193.328C732.549 192.8 732.717 192.368 733.077 192.032C733.437 191.696 733.869 191.528 734.397 191.528ZM733.029 196.592H735.765V209H733.029V196.592ZM745.567 196.256C748.663 196.256 750.223 197.936 750.223 201.344V209H747.487V201.584C747.487 199.544 746.551 198.536 744.679 198.536C744.007 198.536 743.407 198.776 742.903 199.256C742.327 199.784 741.991 200.552 741.895 201.536V209H739.159V196.592H741.895V198.032C742.375 197.456 742.927 197 743.527 196.712C744.151 196.4 744.823 196.256 745.567 196.256ZM758.264 196.256C759.8 196.256 761.024 196.856 761.936 198.104V196.592H764.672V208.208C764.672 212.12 762.728 214.088 758.84 214.088C757.088 214.088 755.768 213.752 754.856 213.128C753.944 212.456 753.368 211.448 753.128 210.056H755.864C756.008 210.752 756.296 211.232 756.752 211.52C757.184 211.784 757.88 211.928 758.84 211.928C760.904 211.928 761.936 210.824 761.936 208.616V206.792C761.024 208.064 759.8 208.712 758.264 208.712C756.584 208.712 755.216 208.136 754.184 207.032C753.128 205.904 752.624 204.392 752.624 202.52C752.624 200.648 753.128 199.136 754.184 197.984C755.216 196.832 756.584 196.256 758.264 196.256ZM758.696 198.464C757.664 198.464 756.872 198.824 756.296 199.544C755.72 200.24 755.432 201.224 755.432 202.52C755.432 203.696 755.648 204.608 756.104 205.28C756.632 206.072 757.472 206.48 758.672 206.48C759.728 206.48 760.544 206.12 761.12 205.448C761.672 204.728 761.96 203.768 761.96 202.52C761.96 201.248 761.672 200.264 761.12 199.544C760.544 198.824 759.728 198.464 758.696 198.464ZM780.646 191.864H783.838L790.39 209H787.39L785.83 204.704H778.654L777.094 209H774.094L780.646 191.864ZM779.494 202.4H784.99L782.302 194.888H782.206L779.494 202.4ZM792.063 191.864H794.871V209H792.063V191.864ZM811.619 196.256C813.443 196.256 814.811 196.712 815.675 197.624C816.443 198.416 816.827 199.568 816.827 201.08V209H814.283V207.368C813.803 207.992 813.203 208.448 812.507 208.784C811.715 209.144 810.779 209.336 809.699 209.336C808.403 209.336 807.395 209 806.651 208.352C805.883 207.68 805.499 206.84 805.499 205.808C805.499 204.416 806.027 203.336 807.131 202.592C808.139 201.872 809.555 201.488 811.379 201.44L814.091 201.368V200.888C814.091 199.256 813.203 198.464 811.427 198.464C810.659 198.464 810.059 198.584 809.603 198.872C809.075 199.184 808.715 199.664 808.571 200.312L805.859 200.096C806.123 198.728 806.795 197.72 807.875 197.096C808.787 196.52 810.035 196.256 811.619 196.256ZM814.091 203.336L811.571 203.408C809.387 203.456 808.307 204.224 808.307 205.712C808.307 206.144 808.475 206.504 808.859 206.792C809.243 207.08 809.723 207.248 810.323 207.248C811.379 207.248 812.267 206.936 812.987 206.336C813.707 205.712 814.091 204.92 814.091 203.96V203.336ZM826.001 196.256C827.825 196.256 829.265 196.904 830.321 198.2C831.281 199.4 831.761 200.936 831.761 202.856C831.761 204.68 831.281 206.192 830.345 207.392C829.337 208.688 827.921 209.336 826.145 209.336C824.705 209.336 823.457 208.64 822.449 207.296V213.752H819.713V196.592H822.257V197.912C823.121 196.808 824.369 196.256 826.001 196.256ZM825.593 198.464C824.513 198.464 823.697 198.872 823.121 199.736C822.593 200.48 822.353 201.464 822.353 202.712V202.904C822.353 204.2 822.665 205.256 823.313 206.048C823.889 206.768 824.609 207.128 825.497 207.128C826.697 207.128 827.609 206.72 828.185 205.952C828.689 205.232 828.953 204.2 828.953 202.856C828.953 201.512 828.713 200.48 828.257 199.76C827.681 198.896 826.793 198.464 825.593 198.464ZM840.439 196.256C842.263 196.256 843.703 196.904 844.759 198.2C845.719 199.4 846.199 200.936 846.199 202.856C846.199 204.68 845.719 206.192 844.783 207.392C843.775 208.688 842.359 209.336 840.583 209.336C839.143 209.336 837.895 208.64 836.887 207.296V213.752H834.151V196.592H836.695V197.912C837.559 196.808 838.807 196.256 840.439 196.256ZM840.031 198.464C838.951 198.464 838.135 198.872 837.559 199.736C837.031 200.48 836.791 201.464 836.791 202.712V202.904C836.791 204.2 837.103 205.256 837.751 206.048C838.327 206.768 839.047 207.128 839.935 207.128C841.135 207.128 842.047 206.72 842.623 205.952C843.127 205.232 843.391 204.2 843.391 202.856C843.391 201.512 843.151 200.48 842.695 199.76C842.119 198.896 841.231 198.464 840.031 198.464ZM853.268 196.256C856.532 196.256 858.332 197.552 858.62 200.192H855.956C855.764 199.568 855.476 199.112 855.092 198.872C854.684 198.608 854.06 198.488 853.22 198.488C852.5 198.488 851.948 198.584 851.588 198.8C851.156 199.016 850.964 199.352 850.964 199.832C850.964 200.216 851.276 200.576 851.948 200.864C852.356 201.032 853.172 201.272 854.42 201.584C855.812 201.92 856.868 202.304 857.54 202.76C858.524 203.384 859.028 204.272 859.028 205.376C859.028 208.016 857.156 209.336 853.436 209.336C849.98 209.336 848.132 207.872 847.868 204.968H850.532C850.676 205.76 850.964 206.312 851.372 206.648C851.78 206.936 852.428 207.104 853.34 207.104C855.26 207.104 856.22 206.576 856.22 205.568C856.22 204.992 855.86 204.536 855.14 204.2C854.756 204.008 853.94 203.792 852.692 203.504C851.228 203.168 850.196 202.808 849.596 202.424C848.636 201.824 848.156 200.984 848.156 199.904C848.156 198.752 848.612 197.864 849.572 197.24C850.508 196.568 851.732 196.256 853.268 196.256ZM863.046 205.376C863.574 205.376 864.006 205.544 864.39 205.928C864.75 206.288 864.942 206.744 864.942 207.272C864.942 207.8 864.75 208.232 864.39 208.616C864.006 208.952 863.574 209.144 863.046 209.144C862.518 209.144 862.062 208.952 861.726 208.616C861.342 208.232 861.174 207.8 861.174 207.272C861.174 206.744 861.342 206.288 861.726 205.928C862.062 205.544 862.518 205.376 863.046 205.376ZM876.039 191.864H878.823V206.6H888.087V209H876.039V191.864ZM895.283 196.256C897.323 196.256 898.883 196.928 899.963 198.32C900.947 199.568 901.451 201.32 901.451 203.552H892.163C892.259 204.704 892.571 205.592 893.099 206.192C893.627 206.792 894.395 207.104 895.379 207.104C896.219 207.104 896.891 206.912 897.419 206.528C897.827 206.216 898.187 205.712 898.523 205.016H901.259C900.971 206.168 900.395 207.152 899.531 207.92C898.427 208.856 897.059 209.336 895.403 209.336C893.555 209.336 892.09 208.76 891.011 207.632C889.859 206.456 889.283 204.848 889.283 202.784C889.283 200.936 889.811 199.4 890.915 198.152C891.971 196.88 893.435 196.256 895.283 196.256ZM895.355 198.488C894.443 198.488 893.747 198.728 893.219 199.256C892.715 199.76 892.379 200.504 892.211 201.488H898.595C898.355 199.472 897.275 198.488 895.355 198.488ZM907.508 192.584V196.592H910.268V198.848H907.508V205.856C907.508 206.144 907.556 206.36 907.7 206.528C907.844 206.672 908.036 206.744 908.324 206.744H909.956V209H907.868C906.788 209 905.996 208.712 905.492 208.136C905.012 207.608 904.772 206.864 904.772 205.856V198.848H902.54V196.592H904.772V193.712L907.508 192.584ZM912.795 191.864H915.699L915.339 198.008H913.179L912.795 191.864ZM923.745 196.256C927.009 196.256 928.809 197.552 929.097 200.192H926.433C926.241 199.568 925.953 199.112 925.569 198.872C925.161 198.608 924.537 198.488 923.697 198.488C922.977 198.488 922.425 198.584 922.065 198.8C921.633 199.016 921.441 199.352 921.441 199.832C921.441 200.216 921.753 200.576 922.425 200.864C922.833 201.032 923.649 201.272 924.897 201.584C926.289 201.92 927.345 202.304 928.017 202.76C929.001 203.384 929.505 204.272 929.505 205.376C929.505 208.016 927.633 209.336 923.913 209.336C920.457 209.336 918.609 207.872 918.345 204.968H921.009C921.153 205.76 921.441 206.312 921.849 206.648C922.257 206.936 922.905 207.104 923.817 207.104C925.737 207.104 926.697 206.576 926.697 205.568C926.697 204.992 926.337 204.536 925.617 204.2C925.233 204.008 924.417 203.792 923.169 203.504C921.705 203.168 920.673 202.808 920.073 202.424C919.113 201.824 918.633 200.984 918.633 199.904C918.633 198.752 919.089 197.864 920.049 197.24C920.985 196.568 922.209 196.256 923.745 196.256ZM561.6 230.256C563.136 230.256 564.36 230.856 565.272 232.104V230.592H568.008V242.208C568.008 246.12 566.064 248.088 562.176 248.088C560.424 248.088 559.104 247.752 558.192 247.128C557.28 246.456 556.704 245.448 556.464 244.056H559.2C559.344 244.752 559.632 245.232 560.088 245.52C560.52 245.784 561.216 245.928 562.176 245.928C564.24 245.928 565.272 244.824 565.272 242.616V240.792C564.36 242.064 563.136 242.712 561.6 242.712C559.92 242.712 558.552 242.136 557.52 241.032C556.464 239.904 555.96 238.392 555.96 236.52C555.96 234.648 556.464 233.136 557.52 231.984C558.552 230.832 559.92 230.256 561.6 230.256ZM562.032 232.464C561 232.464 560.208 232.824 559.632 233.544C559.056 234.24 558.768 235.224 558.768 236.52C558.768 237.696 558.984 238.608 559.44 239.28C559.968 240.072 560.808 240.48 562.008 240.48C563.064 240.48 563.88 240.12 564.456 239.448C565.008 238.728 565.296 237.768 565.296 236.52C565.296 235.248 565.008 234.264 564.456 233.544C563.88 232.824 563.064 232.464 562.032 232.464ZM576.158 230.256C578.198 230.256 579.758 230.928 580.838 232.32C581.822 233.568 582.326 235.32 582.326 237.552H573.038C573.134 238.704 573.446 239.592 573.974 240.192C574.502 240.792 575.27 241.104 576.254 241.104C577.094 241.104 577.766 240.912 578.294 240.528C578.702 240.216 579.062 239.712 579.398 239.016H582.134C581.846 240.168 581.27 241.152 580.406 241.92C579.302 242.856 577.934 243.336 576.278 243.336C574.43 243.336 572.965 242.76 571.886 241.632C570.734 240.456 570.158 238.848 570.158 236.784C570.158 234.936 570.686 233.4 571.79 232.152C572.846 230.88 574.31 230.256 576.158 230.256ZM576.23 232.488C575.318 232.488 574.622 232.728 574.094 233.256C573.59 233.76 573.254 234.504 573.086 235.488H579.47C579.23 233.472 578.15 232.488 576.23 232.488ZM588.383 226.584V230.592H591.143V232.848H588.383V239.856C588.383 240.144 588.431 240.36 588.575 240.528C588.719 240.672 588.911 240.744 589.199 240.744H590.831V243H588.743C587.663 243 586.871 242.712 586.367 242.136C585.887 241.608 585.647 240.864 585.647 239.856V232.848H583.415V230.592H585.647V227.712L588.383 226.584ZM605.862 230.256C609.126 230.256 610.926 231.552 611.214 234.192H608.55C608.358 233.568 608.07 233.112 607.686 232.872C607.278 232.608 606.654 232.488 605.814 232.488C605.094 232.488 604.542 232.584 604.182 232.8C603.75 233.016 603.558 233.352 603.558 233.832C603.558 234.216 603.87 234.576 604.542 234.864C604.95 235.032 605.766 235.272 607.014 235.584C608.406 235.92 609.462 236.304 610.134 236.76C611.118 237.384 611.622 238.272 611.622 239.376C611.622 242.016 609.75 243.336 606.03 243.336C602.574 243.336 600.726 241.872 600.462 238.968H603.126C603.27 239.76 603.558 240.312 603.966 240.648C604.374 240.936 605.022 241.104 605.934 241.104C607.854 241.104 608.814 240.576 608.814 239.568C608.814 238.992 608.454 238.536 607.734 238.2C607.35 238.008 606.534 237.792 605.286 237.504C603.822 237.168 602.79 236.808 602.19 236.424C601.23 235.824 600.75 234.984 600.75 233.904C600.75 232.752 601.206 231.864 602.166 231.24C603.102 230.568 604.326 230.256 605.862 230.256ZM617.68 226.584V230.592H620.44V232.848H617.68V239.856C617.68 240.144 617.728 240.36 617.872 240.528C618.016 240.672 618.208 240.744 618.496 240.744H620.128V243H618.04C616.96 243 616.168 242.712 615.664 242.136C615.184 241.608 614.944 240.864 614.944 239.856V232.848H612.712V230.592H614.944V227.712L617.68 226.584ZM628.127 230.256C629.951 230.256 631.319 230.712 632.183 231.624C632.951 232.416 633.335 233.568 633.335 235.08V243H630.791V241.368C630.311 241.992 629.711 242.448 629.015 242.784C628.223 243.144 627.287 243.336 626.207 243.336C624.911 243.336 623.903 243 623.159 242.352C622.391 241.68 622.007 240.84 622.007 239.808C622.007 238.416 622.535 237.336 623.639 236.592C624.647 235.872 626.063 235.488 627.887 235.44L630.599 235.368V234.888C630.599 233.256 629.711 232.464 627.935 232.464C627.167 232.464 626.567 232.584 626.111 232.872C625.583 233.184 625.223 233.664 625.079 234.312L622.367 234.096C622.631 232.728 623.303 231.72 624.383 231.096C625.295 230.52 626.543 230.256 628.127 230.256ZM630.599 237.336L628.079 237.408C625.895 237.456 624.815 238.224 624.815 239.712C624.815 240.144 624.983 240.504 625.367 240.792C625.751 241.08 626.231 241.248 626.831 241.248C627.887 241.248 628.775 240.936 629.495 240.336C630.215 239.712 630.599 238.92 630.599 237.96V237.336ZM642.077 230.256C642.677 230.256 643.205 230.352 643.637 230.568V233.304C643.013 233.112 642.437 233.04 641.861 233.04C641.141 233.04 640.493 233.304 639.917 233.88C639.245 234.528 638.933 235.368 638.933 236.424V243H636.221V230.592H638.933V232.368C639.269 231.744 639.653 231.264 640.109 230.928C640.661 230.472 641.309 230.256 642.077 230.256ZM649.086 226.584V230.592H651.846V232.848H649.086V239.856C649.086 240.144 649.134 240.36 649.278 240.528C649.422 240.672 649.614 240.744 649.902 240.744H651.534V243H649.446C648.366 243 647.574 242.712 647.07 242.136C646.59 241.608 646.35 240.864 646.35 239.856V232.848H644.118V230.592H646.35V227.712L649.086 226.584ZM659.173 230.256C661.213 230.256 662.773 230.928 663.853 232.32C664.837 233.568 665.341 235.32 665.341 237.552H656.053C656.149 238.704 656.461 239.592 656.989 240.192C657.517 240.792 658.285 241.104 659.269 241.104C660.109 241.104 660.781 240.912 661.309 240.528C661.717 240.216 662.077 239.712 662.413 239.016H665.149C664.861 240.168 664.285 241.152 663.421 241.92C662.317 242.856 660.949 243.336 659.293 243.336C657.445 243.336 655.981 242.76 654.901 241.632C653.749 240.456 653.173 238.848 653.173 236.784C653.173 234.936 653.701 233.4 654.805 232.152C655.861 230.88 657.325 230.256 659.173 230.256ZM659.245 232.488C658.333 232.488 657.637 232.728 657.109 233.256C656.605 233.76 656.269 234.504 656.101 235.488H662.485C662.245 233.472 661.165 232.488 659.245 232.488ZM676.342 225.528H679.078V243H676.534V241.68C675.67 242.784 674.422 243.336 672.79 243.336C670.942 243.336 669.502 242.688 668.47 241.392C667.51 240.192 667.03 238.632 667.03 236.736C667.03 234.912 667.486 233.4 668.446 232.2C669.454 230.904 670.87 230.256 672.646 230.256C674.086 230.256 675.31 230.928 676.342 232.296V225.528ZM673.294 232.464C672.046 232.464 671.158 232.872 670.582 233.688C670.078 234.384 669.838 235.392 669.838 236.736C669.838 238.08 670.054 239.112 670.534 239.832C671.086 240.696 671.974 241.128 673.198 241.128C674.254 241.128 675.094 240.696 675.67 239.856C676.174 239.088 676.438 238.08 676.438 236.88V236.688C676.438 235.368 676.102 234.312 675.478 233.544C674.902 232.824 674.158 232.464 673.294 232.464ZM688.62 230.592H691.644L694.116 239.76L696.564 230.592H699.084L701.532 239.76L704.004 230.592H707.028L702.852 243H700.308L697.836 233.928L695.34 243H692.796L688.62 230.592ZM710.444 225.528C710.972 225.528 711.428 225.696 711.788 226.032C712.124 226.368 712.316 226.8 712.316 227.328C712.316 227.856 712.124 228.312 711.764 228.648C711.404 228.984 710.972 229.152 710.444 229.152C709.916 229.152 709.484 228.984 709.124 228.648C708.764 228.288 708.596 227.856 708.596 227.328C708.596 226.8 708.764 226.368 709.124 226.032C709.484 225.696 709.916 225.528 710.444 225.528ZM709.076 230.592H711.812V243H709.076V230.592ZM719.094 226.584V230.592H721.854V232.848H719.094V239.856C719.094 240.144 719.142 240.36 719.286 240.528C719.43 240.672 719.622 240.744 719.91 240.744H721.542V243H719.454C718.374 243 717.582 242.712 717.078 242.136C716.598 241.608 716.358 240.864 716.358 239.856V232.848H714.126V230.592H716.358V227.712L719.094 226.584ZM723.901 225.528H726.637V232.248C727.093 231.552 727.669 231.048 728.341 230.712C728.941 230.4 729.637 230.256 730.429 230.256C731.941 230.256 733.069 230.688 733.813 231.576C734.509 232.416 734.869 233.664 734.869 235.32V243H732.133V235.8C732.133 234.744 731.917 233.928 731.509 233.376C731.029 232.776 730.333 232.488 729.397 232.488C728.533 232.488 727.861 232.824 727.381 233.496C726.877 234.168 726.637 235.008 726.637 236.064V243H723.901V225.528ZM750.425 230.256C753.689 230.256 755.489 231.552 755.777 234.192H753.113C752.921 233.568 752.633 233.112 752.249 232.872C751.841 232.608 751.217 232.488 750.377 232.488C749.657 232.488 749.105 232.584 748.745 232.8C748.313 233.016 748.121 233.352 748.121 233.832C748.121 234.216 748.433 234.576 749.105 234.864C749.513 235.032 750.329 235.272 751.577 235.584C752.969 235.92 754.025 236.304 754.697 236.76C755.681 237.384 756.185 238.272 756.185 239.376C756.185 242.016 754.313 243.336 750.593 243.336C747.137 243.336 745.289 241.872 745.025 238.968H747.689C747.833 239.76 748.121 240.312 748.529 240.648C748.937 240.936 749.585 241.104 750.497 241.104C752.417 241.104 753.377 240.576 753.377 239.568C753.377 238.992 753.017 238.536 752.297 238.2C751.913 238.008 751.097 237.792 749.849 237.504C748.385 237.168 747.353 236.808 746.753 236.424C745.793 235.824 745.313 234.984 745.313 233.904C745.313 232.752 745.769 231.864 746.729 231.24C747.665 230.568 748.889 230.256 750.425 230.256ZM764.114 230.256C765.986 230.256 767.498 230.856 768.65 232.104C769.778 233.328 770.354 234.888 770.354 236.808C770.354 238.704 769.778 240.264 768.674 241.464C767.522 242.712 765.986 243.336 764.114 243.336C762.218 243.336 760.706 242.712 759.554 241.464C758.426 240.264 757.874 238.704 757.874 236.808C757.874 234.888 758.426 233.328 759.578 232.104C760.706 230.856 762.218 230.256 764.114 230.256ZM764.114 232.488C762.962 232.488 762.098 232.92 761.474 233.832C760.946 234.6 760.682 235.608 760.682 236.808C760.682 238.008 760.946 238.992 761.474 239.76C762.098 240.648 762.962 241.104 764.114 241.104C765.242 241.104 766.13 240.648 766.754 239.76C767.282 238.968 767.57 237.984 767.57 236.808C767.57 235.608 767.282 234.6 766.754 233.832C766.13 232.92 765.242 232.488 764.114 232.488ZM778.841 230.256C780.665 230.256 781.961 230.928 782.753 232.272C783.329 231.504 783.929 230.976 784.553 230.688C785.105 230.4 785.801 230.256 786.641 230.256C787.913 230.256 788.969 230.664 789.833 231.528C790.649 232.392 791.081 233.496 791.081 234.864V243H788.345V235.344C788.345 234.36 788.129 233.64 787.721 233.208C787.289 232.752 786.617 232.536 785.657 232.536C784.985 232.536 784.433 232.776 783.977 233.304C783.497 233.808 783.281 234.504 783.281 235.416V243H780.545V235.368C780.545 233.472 779.729 232.536 778.097 232.536C777.305 232.536 776.681 232.824 776.201 233.448C775.721 234.024 775.481 234.744 775.481 235.56V243H772.745V230.592H775.481V231.864C776.513 230.784 777.641 230.256 778.841 230.256ZM799.236 230.256C801.276 230.256 802.836 230.928 803.916 232.32C804.9 233.568 805.404 235.32 805.404 237.552H796.116C796.212 238.704 796.524 239.592 797.052 240.192C797.58 240.792 798.348 241.104 799.332 241.104C800.172 241.104 800.844 240.912 801.372 240.528C801.78 240.216 802.14 239.712 802.476 239.016H805.212C804.924 240.168 804.348 241.152 803.484 241.92C802.38 242.856 801.012 243.336 799.356 243.336C797.508 243.336 796.044 242.76 794.964 241.632C793.812 240.456 793.236 238.848 793.236 236.784C793.236 234.936 793.764 233.4 794.868 232.152C795.924 230.88 797.388 230.256 799.236 230.256ZM799.308 232.488C798.396 232.488 797.7 232.728 797.172 233.256C796.668 233.76 796.332 234.504 796.164 235.488H802.548C802.308 233.472 801.228 232.488 799.308 232.488ZM821.421 230.256C822.021 230.256 822.549 230.352 822.981 230.568V233.304C822.357 233.112 821.781 233.04 821.205 233.04C820.485 233.04 819.837 233.304 819.261 233.88C818.589 234.528 818.277 235.368 818.277 236.424V243H815.565V230.592H818.277V232.368C818.613 231.744 818.997 231.264 819.453 230.928C820.005 230.472 820.653 230.256 821.421 230.256ZM829.822 230.256C831.862 230.256 833.422 230.928 834.502 232.32C835.486 233.568 835.99 235.32 835.99 237.552H826.702C826.798 238.704 827.11 239.592 827.638 240.192C828.166 240.792 828.934 241.104 829.918 241.104C830.758 241.104 831.43 240.912 831.958 240.528C832.366 240.216 832.726 239.712 833.062 239.016H835.798C835.51 240.168 834.934 241.152 834.07 241.92C832.966 242.856 831.598 243.336 829.942 243.336C828.094 243.336 826.63 242.76 825.55 241.632C824.398 240.456 823.822 238.848 823.822 236.784C823.822 234.936 824.35 233.4 825.454 232.152C826.51 230.88 827.974 230.256 829.822 230.256ZM829.894 232.488C828.982 232.488 828.286 232.728 827.758 233.256C827.254 233.76 826.918 234.504 826.75 235.488H833.134C832.894 233.472 831.814 232.488 829.894 232.488ZM843.799 230.256C845.623 230.256 846.991 230.712 847.855 231.624C848.623 232.416 849.007 233.568 849.007 235.08V243H846.463V241.368C845.983 241.992 845.383 242.448 844.687 242.784C843.895 243.144 842.959 243.336 841.879 243.336C840.583 243.336 839.575 243 838.831 242.352C838.063 241.68 837.679 240.84 837.679 239.808C837.679 238.416 838.207 237.336 839.311 236.592C840.319 235.872 841.735 235.488 843.559 235.44L846.271 235.368V234.888C846.271 233.256 845.383 232.464 843.607 232.464C842.839 232.464 842.239 232.584 841.783 232.872C841.255 233.184 840.895 233.664 840.751 234.312L838.039 234.096C838.303 232.728 838.975 231.72 840.055 231.096C840.967 230.52 842.215 230.256 843.799 230.256ZM846.271 237.336L843.751 237.408C841.567 237.456 840.487 238.224 840.487 239.712C840.487 240.144 840.655 240.504 841.039 240.792C841.423 241.08 841.903 241.248 842.503 241.248C843.559 241.248 844.447 240.936 845.167 240.336C845.887 239.712 846.271 238.92 846.271 237.96V237.336ZM860.725 225.528H863.461V243H860.917V241.68C860.053 242.784 858.805 243.336 857.173 243.336C855.325 243.336 853.885 242.688 852.853 241.392C851.893 240.192 851.413 238.632 851.413 236.736C851.413 234.912 851.869 233.4 852.829 232.2C853.837 230.904 855.253 230.256 857.029 230.256C858.469 230.256 859.693 230.928 860.725 232.296V225.528ZM857.677 232.464C856.429 232.464 855.541 232.872 854.965 233.688C854.461 234.384 854.221 235.392 854.221 236.736C854.221 238.08 854.437 239.112 854.917 239.832C855.469 240.696 856.357 241.128 857.581 241.128C858.637 241.128 859.477 240.696 860.053 239.856C860.557 239.088 860.821 238.08 860.821 236.88V236.688C860.821 235.368 860.485 234.312 859.861 233.544C859.285 232.824 858.541 232.464 857.677 232.464ZM865.011 230.592H867.987L871.275 239.424L874.419 230.592H877.395L870.675 247.752H867.747L869.931 242.712L865.011 230.592ZM878.723 235.656H890.843V237.912H878.723V235.656ZM897.383 226.584V230.592H900.143V232.848H897.383V239.856C897.383 240.144 897.431 240.36 897.575 240.528C897.719 240.672 897.911 240.744 898.199 240.744H899.831V243H897.743C896.663 243 895.871 242.712 895.367 242.136C894.887 241.608 894.647 240.864 894.647 239.856V232.848H892.415V230.592H894.647V227.712L897.383 226.584ZM907.95 230.256C909.822 230.256 911.334 230.856 912.486 232.104C913.614 233.328 914.19 234.888 914.19 236.808C914.19 238.704 913.614 240.264 912.51 241.464C911.358 242.712 909.822 243.336 907.95 243.336C906.054 243.336 904.542 242.712 903.39 241.464C902.262 240.264 901.71 238.704 901.71 236.808C901.71 234.888 902.262 233.328 903.414 232.104C904.542 230.856 906.054 230.256 907.95 230.256ZM907.95 232.488C906.798 232.488 905.934 232.92 905.31 233.832C904.782 234.6 904.518 235.608 904.518 236.808C904.518 238.008 904.782 238.992 905.31 239.76C905.934 240.648 906.798 241.104 907.95 241.104C909.078 241.104 909.966 240.648 910.59 239.76C911.118 238.968 911.406 237.984 911.406 236.808C911.406 235.608 911.118 234.6 910.59 233.832C909.966 232.92 909.078 232.488 907.95 232.488ZM916.341 235.656H928.461V237.912H916.341V235.656ZM556.44 264.592H559.176V272.152C559.176 273.16 559.368 273.88 559.8 274.36C560.232 274.816 560.904 275.056 561.864 275.056C562.464 275.056 563.04 274.792 563.592 274.288C564.144 273.76 564.552 273.064 564.792 272.176V264.592H567.528V277H564.792V275.392C563.736 276.688 562.44 277.336 560.904 277.336C557.928 277.336 556.44 275.656 556.44 272.32V264.592ZM575.089 264.256C578.353 264.256 580.153 265.552 580.441 268.192H577.777C577.585 267.568 577.297 267.112 576.913 266.872C576.505 266.608 575.881 266.488 575.041 266.488C574.321 266.488 573.769 266.584 573.409 266.8C572.977 267.016 572.785 267.352 572.785 267.832C572.785 268.216 573.097 268.576 573.769 268.864C574.177 269.032 574.993 269.272 576.241 269.584C577.633 269.92 578.689 270.304 579.361 270.76C580.345 271.384 580.849 272.272 580.849 273.376C580.849 276.016 578.977 277.336 575.257 277.336C571.801 277.336 569.953 275.872 569.689 272.968H572.353C572.497 273.76 572.785 274.312 573.193 274.648C573.601 274.936 574.249 275.104 575.161 275.104C577.081 275.104 578.041 274.576 578.041 273.568C578.041 272.992 577.681 272.536 576.961 272.2C576.577 272.008 575.761 271.792 574.513 271.504C573.049 271.168 572.017 270.808 571.417 270.424C570.457 269.824 569.977 268.984 569.977 267.904C569.977 266.752 570.433 265.864 571.393 265.24C572.329 264.568 573.553 264.256 575.089 264.256ZM588.298 264.256C590.338 264.256 591.898 264.928 592.978 266.32C593.962 267.568 594.466 269.32 594.466 271.552H585.178C585.274 272.704 585.586 273.592 586.114 274.192C586.642 274.792 587.41 275.104 588.394 275.104C589.234 275.104 589.906 274.912 590.434 274.528C590.842 274.216 591.202 273.712 591.538 273.016H594.274C593.986 274.168 593.41 275.152 592.546 275.92C591.442 276.856 590.074 277.336 588.418 277.336C586.57 277.336 585.106 276.76 584.026 275.632C582.874 274.456 582.298 272.848 582.298 270.784C582.298 268.936 582.826 267.4 583.93 266.152C584.986 264.88 586.45 264.256 588.298 264.256ZM588.37 266.488C587.458 266.488 586.762 266.728 586.234 267.256C585.73 267.76 585.394 268.504 585.226 269.488H591.61C591.37 267.472 590.29 266.488 588.37 266.488ZM610.196 264.256C611.804 264.256 613.076 264.616 614.036 265.336C615.02 266.104 615.644 267.256 615.884 268.816H613.172C613.004 268.024 612.668 267.448 612.188 267.064C611.684 266.68 611.012 266.488 610.196 266.488C609.188 266.488 608.396 266.848 607.82 267.616C607.244 268.36 606.956 269.416 606.956 270.76C606.956 272.128 607.22 273.208 607.796 273.976C608.324 274.72 609.116 275.104 610.172 275.104C611.996 275.104 613.004 274.192 613.22 272.392H615.932C615.644 274.072 614.996 275.32 614.012 276.136C613.052 276.928 611.756 277.336 610.148 277.336C608.228 277.336 606.74 276.712 605.684 275.464C604.652 274.264 604.148 272.704 604.148 270.784C604.148 268.912 604.652 267.376 605.66 266.2C606.74 264.904 608.252 264.256 610.196 264.256ZM623.841 264.256C625.713 264.256 627.225 264.856 628.377 266.104C629.505 267.328 630.081 268.888 630.081 270.808C630.081 272.704 629.505 274.264 628.401 275.464C627.249 276.712 625.713 277.336 623.841 277.336C621.945 277.336 620.433 276.712 619.281 275.464C618.153 274.264 617.601 272.704 617.601 270.808C617.601 268.888 618.153 267.328 619.305 266.104C620.433 264.856 621.945 264.256 623.841 264.256ZM623.841 266.488C622.689 266.488 621.825 266.92 621.201 267.832C620.673 268.6 620.409 269.608 620.409 270.808C620.409 272.008 620.673 272.992 621.201 273.76C621.825 274.648 622.689 275.104 623.841 275.104C624.969 275.104 625.857 274.648 626.481 273.76C627.009 272.968 627.297 271.984 627.297 270.808C627.297 269.608 627.009 268.6 626.481 267.832C625.857 266.92 624.969 266.488 623.841 266.488ZM638.567 264.256C640.391 264.256 641.687 264.928 642.479 266.272C643.055 265.504 643.655 264.976 644.279 264.688C644.831 264.4 645.527 264.256 646.367 264.256C647.639 264.256 648.695 264.664 649.559 265.528C650.375 266.392 650.807 267.496 650.807 268.864V277H648.071V269.344C648.071 268.36 647.855 267.64 647.447 267.208C647.015 266.752 646.343 266.536 645.383 266.536C644.711 266.536 644.159 266.776 643.703 267.304C643.223 267.808 643.007 268.504 643.007 269.416V277H640.271V269.368C640.271 267.472 639.455 266.536 637.823 266.536C637.031 266.536 636.407 266.824 635.927 267.448C635.447 268.024 635.207 268.744 635.207 269.56V277H632.471V264.592H635.207V265.864C636.239 264.784 637.367 264.256 638.567 264.256ZM659.97 264.256C661.794 264.256 663.234 264.904 664.29 266.2C665.25 267.4 665.73 268.936 665.73 270.856C665.73 272.68 665.25 274.192 664.314 275.392C663.306 276.688 661.89 277.336 660.114 277.336C658.674 277.336 657.426 276.64 656.418 275.296V281.752H653.682V264.592H656.226V265.912C657.09 264.808 658.338 264.256 659.97 264.256ZM659.562 266.464C658.482 266.464 657.666 266.872 657.09 267.736C656.562 268.48 656.322 269.464 656.322 270.712V270.904C656.322 272.2 656.634 273.256 657.282 274.048C657.858 274.768 658.578 275.128 659.466 275.128C660.666 275.128 661.578 274.72 662.154 273.952C662.658 273.232 662.922 272.2 662.922 270.856C662.922 269.512 662.682 268.48 662.226 267.76C661.65 266.896 660.762 266.464 659.562 266.464ZM673.88 264.256C675.752 264.256 677.264 264.856 678.416 266.104C679.544 267.328 680.12 268.888 680.12 270.808C680.12 272.704 679.544 274.264 678.44 275.464C677.288 276.712 675.752 277.336 673.88 277.336C671.984 277.336 670.472 276.712 669.32 275.464C668.192 274.264 667.64 272.704 667.64 270.808C667.64 268.888 668.192 267.328 669.344 266.104C670.472 264.856 671.984 264.256 673.88 264.256ZM673.88 266.488C672.728 266.488 671.864 266.92 671.24 267.832C670.712 268.6 670.448 269.608 670.448 270.808C670.448 272.008 670.712 272.992 671.24 273.76C671.864 274.648 672.728 275.104 673.88 275.104C675.008 275.104 675.896 274.648 676.52 273.76C677.048 272.968 677.336 271.984 677.336 270.808C677.336 269.608 677.048 268.6 676.52 267.832C675.896 266.92 675.008 266.488 673.88 266.488ZM688.918 264.256C692.014 264.256 693.574 265.936 693.574 269.344V277H690.838V269.584C690.838 267.544 689.902 266.536 688.03 266.536C687.358 266.536 686.758 266.776 686.254 267.256C685.678 267.784 685.342 268.552 685.246 269.536V277H682.51V264.592H685.246V266.032C685.726 265.456 686.278 265 686.878 264.712C687.502 264.4 688.174 264.256 688.918 264.256ZM701.736 264.256C703.776 264.256 705.336 264.928 706.416 266.32C707.4 267.568 707.904 269.32 707.904 271.552H698.616C698.712 272.704 699.024 273.592 699.552 274.192C700.08 274.792 700.848 275.104 701.832 275.104C702.672 275.104 703.344 274.912 703.872 274.528C704.28 274.216 704.64 273.712 704.976 273.016H707.712C707.424 274.168 706.848 275.152 705.984 275.92C704.88 276.856 703.512 277.336 701.856 277.336C700.008 277.336 698.544 276.76 697.464 275.632C696.312 274.456 695.736 272.848 695.736 270.784C695.736 268.936 696.264 267.4 697.368 266.152C698.424 264.88 699.888 264.256 701.736 264.256ZM701.808 266.488C700.896 266.488 700.2 266.728 699.672 267.256C699.168 267.76 698.832 268.504 698.664 269.488H705.048C704.808 267.472 703.728 266.488 701.808 266.488ZM716.481 264.256C719.577 264.256 721.137 265.936 721.137 269.344V277H718.401V269.584C718.401 267.544 717.465 266.536 715.593 266.536C714.921 266.536 714.321 266.776 713.817 267.256C713.241 267.784 712.905 268.552 712.809 269.536V277H710.073V264.592H712.809V266.032C713.289 265.456 713.841 265 714.441 264.712C715.065 264.4 715.737 264.256 716.481 264.256ZM727.906 260.584V264.592H730.666V266.848H727.906V273.856C727.906 274.144 727.954 274.36 728.098 274.528C728.242 274.672 728.434 274.744 728.722 274.744H730.354V277H728.266C727.186 277 726.394 276.712 725.89 276.136C725.41 275.608 725.17 274.864 725.17 273.856V266.848H722.938V264.592H725.17V261.712L727.906 260.584ZM737.393 264.256C740.657 264.256 742.457 265.552 742.745 268.192H740.081C739.889 267.568 739.601 267.112 739.217 266.872C738.809 266.608 738.185 266.488 737.345 266.488C736.625 266.488 736.073 266.584 735.713 266.8C735.281 267.016 735.089 267.352 735.089 267.832C735.089 268.216 735.401 268.576 736.073 268.864C736.481 269.032 737.297 269.272 738.545 269.584C739.937 269.92 740.993 270.304 741.665 270.76C742.649 271.384 743.153 272.272 743.153 273.376C743.153 276.016 741.281 277.336 737.561 277.336C734.105 277.336 732.257 275.872 731.993 272.968H734.657C734.801 273.76 735.089 274.312 735.497 274.648C735.905 274.936 736.553 275.104 737.465 275.104C739.385 275.104 740.345 274.576 740.345 273.568C740.345 272.992 739.985 272.536 739.265 272.2C738.881 272.008 738.065 271.792 736.817 271.504C735.353 271.168 734.321 270.808 733.721 270.424C732.761 269.824 732.281 268.984 732.281 267.904C732.281 266.752 732.737 265.864 733.697 265.24C734.633 264.568 735.857 264.256 737.393 264.256ZM757.203 260.584V264.592H759.963V266.848H757.203V273.856C757.203 274.144 757.251 274.36 757.395 274.528C757.539 274.672 757.731 274.744 758.019 274.744H759.651V277H757.563C756.483 277 755.691 276.712 755.187 276.136C754.707 275.608 754.467 274.864 754.467 273.856V266.848H752.235V264.592H754.467V261.712L757.203 260.584ZM767.77 264.256C769.642 264.256 771.154 264.856 772.306 266.104C773.434 267.328 774.01 268.888 774.01 270.808C774.01 272.704 773.434 274.264 772.33 275.464C771.178 276.712 769.642 277.336 767.77 277.336C765.874 277.336 764.362 276.712 763.21 275.464C762.082 274.264 761.53 272.704 761.53 270.808C761.53 268.888 762.082 267.328 763.234 266.104C764.362 264.856 765.874 264.256 767.77 264.256ZM767.77 266.488C766.618 266.488 765.754 266.92 765.13 267.832C764.602 268.6 764.338 269.608 764.338 270.808C764.338 272.008 764.602 272.992 765.13 273.76C765.754 274.648 766.618 275.104 767.77 275.104C768.898 275.104 769.786 274.648 770.41 273.76C770.938 272.968 771.226 271.984 771.226 270.808C771.226 269.608 770.938 268.6 770.41 267.832C769.786 266.92 768.898 266.488 767.77 266.488ZM784.393 259.528H787.129V269.512L792.217 264.592H795.745L790.249 269.728L796.225 277H792.721L788.377 271.48L787.129 272.656V277H784.393V259.528ZM799.507 259.528C800.035 259.528 800.491 259.696 800.851 260.032C801.187 260.368 801.379 260.8 801.379 261.328C801.379 261.856 801.187 262.312 800.827 262.648C800.467 262.984 800.035 263.152 799.507 263.152C798.979 263.152 798.547 262.984 798.187 262.648C797.827 262.288 797.659 261.856 797.659 261.328C797.659 260.8 797.827 260.368 798.187 260.032C798.547 259.696 798.979 259.528 799.507 259.528ZM798.139 264.592H800.875V277H798.139V264.592ZM809.836 264.256C811.444 264.256 812.716 264.616 813.676 265.336C814.66 266.104 815.284 267.256 815.524 268.816H812.812C812.644 268.024 812.308 267.448 811.828 267.064C811.324 266.68 810.652 266.488 809.836 266.488C808.828 266.488 808.036 266.848 807.46 267.616C806.884 268.36 806.596 269.416 806.596 270.76C806.596 272.128 806.86 273.208 807.436 273.976C807.964 274.72 808.756 275.104 809.812 275.104C811.636 275.104 812.644 274.192 812.86 272.392H815.572C815.284 274.072 814.636 275.32 813.652 276.136C812.692 276.928 811.396 277.336 809.788 277.336C807.868 277.336 806.38 276.712 805.324 275.464C804.292 274.264 803.788 272.704 803.788 270.784C803.788 268.912 804.292 267.376 805.3 266.2C806.38 264.904 807.892 264.256 809.836 264.256ZM817.721 259.528H820.457V269.512L825.545 264.592H829.073L823.577 269.728L829.553 277H826.049L821.705 271.48L820.457 272.656V277H817.721V259.528ZM844.739 264.256C846.611 264.256 848.123 264.856 849.275 266.104C850.403 267.328 850.979 268.888 850.979 270.808C850.979 272.704 850.403 274.264 849.299 275.464C848.147 276.712 846.611 277.336 844.739 277.336C842.843 277.336 841.331 276.712 840.179 275.464C839.051 274.264 838.499 272.704 838.499 270.808C838.499 268.888 839.051 267.328 840.203 266.104C841.331 264.856 842.843 264.256 844.739 264.256ZM844.739 266.488C843.587 266.488 842.723 266.92 842.099 267.832C841.571 268.6 841.307 269.608 841.307 270.808C841.307 272.008 841.571 272.992 842.099 273.76C842.723 274.648 843.587 275.104 844.739 275.104C845.867 275.104 846.755 274.648 847.379 273.76C847.907 272.968 848.195 271.984 848.195 270.808C848.195 269.608 847.907 268.6 847.379 267.832C846.755 266.92 845.867 266.488 844.739 266.488ZM858.242 259.864H860.882V262.168H858.626C858.266 262.168 858.002 262.264 857.81 262.456C857.618 262.648 857.546 262.936 857.546 263.344V264.592H862.37V263.272C862.37 262.216 862.658 261.376 863.258 260.776C863.834 260.152 864.698 259.864 865.802 259.864H868.442V262.168H866.186C865.826 262.168 865.562 262.264 865.37 262.456C865.178 262.648 865.106 262.936 865.106 263.344V264.592H868.274V266.824H865.106V277H862.37V266.824H857.546V277H854.81V266.824H852.05V264.592H854.81V263.272C854.81 262.216 855.098 261.376 855.698 260.776C856.274 260.152 857.138 259.864 858.242 259.864ZM876.683 264.592H879.659L882.947 273.424L886.091 264.592H889.067L882.347 281.752H879.419L881.603 276.712L876.683 264.592ZM896.395 264.256C898.267 264.256 899.779 264.856 900.931 266.104C902.059 267.328 902.635 268.888 902.635 270.808C902.635 272.704 902.059 274.264 900.955 275.464C899.803 276.712 898.267 277.336 896.395 277.336C894.499 277.336 892.987 276.712 891.835 275.464C890.707 274.264 890.155 272.704 890.155 270.808C890.155 268.888 890.707 267.328 891.859 266.104C892.987 264.856 894.499 264.256 896.395 264.256ZM896.395 266.488C895.243 266.488 894.379 266.92 893.755 267.832C893.227 268.6 892.963 269.608 892.963 270.808C892.963 272.008 893.227 272.992 893.755 273.76C894.379 274.648 895.243 275.104 896.395 275.104C897.523 275.104 898.411 274.648 899.035 273.76C899.563 272.968 899.851 271.984 899.851 270.808C899.851 269.608 899.563 268.6 899.035 267.832C898.411 266.92 897.523 266.488 896.395 266.488ZM905.026 264.592H907.762V272.152C907.762 273.16 907.954 273.88 908.386 274.36C908.818 274.816 909.49 275.056 910.45 275.056C911.05 275.056 911.626 274.792 912.178 274.288C912.73 273.76 913.138 273.064 913.378 272.176V264.592H916.114V277H913.378V275.392C912.322 276.688 911.026 277.336 909.49 277.336C906.514 277.336 905.026 275.656 905.026 272.32V264.592ZM924.851 264.256C925.451 264.256 925.979 264.352 926.411 264.568V267.304C925.787 267.112 925.211 267.04 924.635 267.04C923.915 267.04 923.267 267.304 922.691 267.88C922.019 268.528 921.707 269.368 921.707 270.424V277H918.995V264.592H921.707V266.368C922.043 265.744 922.427 265.264 922.883 264.928C923.435 264.472 924.083 264.256 924.851 264.256ZM562.728 298.256C564.552 298.256 565.992 298.904 567.048 300.2C568.008 301.4 568.488 302.936 568.488 304.856C568.488 306.68 568.008 308.192 567.072 309.392C566.064 310.688 564.648 311.336 562.872 311.336C561.432 311.336 560.184 310.64 559.176 309.296V315.752H556.44V298.592H558.984V299.912C559.848 298.808 561.096 298.256 562.728 298.256ZM562.32 300.464C561.24 300.464 560.424 300.872 559.848 301.736C559.32 302.48 559.08 303.464 559.08 304.712V304.904C559.08 306.2 559.392 307.256 560.04 308.048C560.616 308.768 561.336 309.128 562.224 309.128C563.424 309.128 564.336 308.72 564.912 307.952C565.416 307.232 565.68 306.2 565.68 304.856C565.68 303.512 565.44 302.48 564.984 301.76C564.408 300.896 563.52 300.464 562.32 300.464ZM576.734 298.256C577.334 298.256 577.862 298.352 578.294 298.568V301.304C577.67 301.112 577.094 301.04 576.518 301.04C575.798 301.04 575.15 301.304 574.574 301.88C573.902 302.528 573.59 303.368 573.59 304.424V311H570.878V298.592H573.59V300.368C573.926 299.744 574.31 299.264 574.766 298.928C575.318 298.472 575.966 298.256 576.734 298.256ZM585.614 298.256C587.486 298.256 588.998 298.856 590.15 300.104C591.278 301.328 591.854 302.888 591.854 304.808C591.854 306.704 591.278 308.264 590.174 309.464C589.022 310.712 587.486 311.336 585.614 311.336C583.718 311.336 582.206 310.712 581.054 309.464C579.926 308.264 579.374 306.704 579.374 304.808C579.374 302.888 579.926 301.328 581.078 300.104C582.206 298.856 583.718 298.256 585.614 298.256ZM585.614 300.488C584.462 300.488 583.598 300.92 582.974 301.832C582.446 302.6 582.182 303.608 582.182 304.808C582.182 306.008 582.446 306.992 582.974 307.76C583.598 308.648 584.462 309.104 585.614 309.104C586.742 309.104 587.63 308.648 588.254 307.76C588.782 306.968 589.07 305.984 589.07 304.808C589.07 303.608 588.782 302.6 588.254 301.832C587.63 300.92 586.742 300.488 585.614 300.488ZM596.117 293.528C596.645 293.528 597.101 293.696 597.461 294.032C597.797 294.368 597.989 294.8 597.989 295.328C597.989 295.856 597.797 296.312 597.461 296.648C597.077 296.984 596.645 297.152 596.117 297.152C595.589 297.152 595.157 296.984 594.821 296.648C594.437 296.288 594.269 295.856 594.269 295.328C594.269 294.8 594.437 294.368 594.821 294.032C595.157 293.696 595.589 293.528 596.117 293.528ZM594.749 298.592H597.485V312.128C597.485 314.528 596.189 315.752 593.621 315.752H592.445V313.52H593.381C594.293 313.52 594.749 313.016 594.749 312.008V298.592ZM606.158 298.256C608.198 298.256 609.758 298.928 610.838 300.32C611.822 301.568 612.326 303.32 612.326 305.552H603.038C603.134 306.704 603.446 307.592 603.974 308.192C604.502 308.792 605.27 309.104 606.254 309.104C607.094 309.104 607.766 308.912 608.294 308.528C608.702 308.216 609.062 307.712 609.398 307.016H612.134C611.846 308.168 611.27 309.152 610.406 309.92C609.302 310.856 607.934 311.336 606.278 311.336C604.43 311.336 602.965 310.76 601.886 309.632C600.734 308.456 600.158 306.848 600.158 304.784C600.158 302.936 600.686 301.4 601.79 300.152C602.846 298.88 604.31 298.256 606.158 298.256ZM606.23 300.488C605.318 300.488 604.622 300.728 604.094 301.256C603.59 301.76 603.254 302.504 603.086 303.488H609.47C609.23 301.472 608.15 300.488 606.23 300.488ZM620.063 298.256C621.671 298.256 622.943 298.616 623.903 299.336C624.887 300.104 625.511 301.256 625.751 302.816H623.039C622.871 302.024 622.535 301.448 622.055 301.064C621.551 300.68 620.879 300.488 620.063 300.488C619.055 300.488 618.263 300.848 617.687 301.616C617.111 302.36 616.823 303.416 616.823 304.76C616.823 306.128 617.087 307.208 617.663 307.976C618.191 308.72 618.983 309.104 620.039 309.104C621.863 309.104 622.871 308.192 623.087 306.392H625.799C625.511 308.072 624.863 309.32 623.879 310.136C622.919 310.928 621.623 311.336 620.015 311.336C618.095 311.336 616.607 310.712 615.551 309.464C614.519 308.264 614.015 306.704 614.015 304.784C614.015 302.912 614.519 301.376 615.527 300.2C616.607 298.904 618.119 298.256 620.063 298.256ZM631.836 294.584V298.592H634.596V300.848H631.836V307.856C631.836 308.144 631.884 308.36 632.028 308.528C632.172 308.672 632.364 308.744 632.652 308.744H634.284V311H632.196C631.116 311 630.324 310.712 629.82 310.136C629.34 309.608 629.1 308.864 629.1 307.856V300.848H626.868V298.592H629.1V295.712L631.836 294.584ZM638.491 307.376C639.019 307.376 639.451 307.544 639.835 307.928C640.195 308.288 640.387 308.744 640.387 309.272C640.387 309.8 640.195 310.232 639.835 310.616C639.451 310.952 639.019 311.144 638.491 311.144C637.963 311.144 637.507 310.952 637.171 310.616C636.787 310.232 636.619 309.8 636.619 309.272C636.619 308.744 636.787 308.288 637.171 307.928C637.507 307.544 637.963 307.376 638.491 307.376Z" fill="black" fill-opacity="0.6"/>
<rect x="534" y="358" width="90" height="50" rx="24" fill="white"/>
<circle cx="559" cy="383" r="5" fill="#BBBBBB"/>
<circle cx="579" cy="383" r="5" fill="#D9D9D9"/>
<circle cx="599" cy="383" r="5" fill="#E7E7E7"/>
</g>
<defs>
<linearGradient id="paint0_linear_1224_89" x1="-2.57925e-05" y1="-25.4878" x2="130.651" y2="594.73" gradientUnits="userSpaceOnUse">
<stop stop-color="#0074FC"/>
<stop offset="1" stop-color="#00E540"/>
</linearGradient>
<clipPath id="clip0_1224_89">
<rect width="1080" height="440" fill="white"/>
</clipPath>
</defs>
</svg>
